<?xml version="1.0" encoding="UTF-8" standalone="no"?>
<!-- Created with Inkscape (http://www.inkscape.org/) -->

<svg
   xmlns:dc="http://purl.org/dc/elements/1.1/"
   xmlns:cc="http://creativecommons.org/ns#"
   xmlns:rdf="http://www.w3.org/1999/02/22-rdf-syntax-ns#"
   xmlns:svg="http://www.w3.org/2000/svg"
   xmlns="http://www.w3.org/2000/svg"
   xmlns:sodipodi="http://sodipodi.sourceforge.net/DTD/sodipodi-0.dtd"
   xmlns:inkscape="http://www.inkscape.org/namespaces/inkscape"
   width="210mm"
   height="297mm"
   viewBox="0 0 210 297"
   version="1.1"
   id="svg5081"
   inkscape:version="0.92.5 (2060ec1f9f, 2020-04-08)"
   sodipodi:docname="Baum.svg">
  <defs
     id="defs5075">
    <linearGradient
       id="paint39_linear"
       x1="368.59"
       x2="527.823"
       y1="2150.3899"
       y2="2147.75"
       gradientUnits="userSpaceOnUse"
       gradientTransform="matrix(0.26458333,0,0,0.26458333,-64.09249,-523.78753)">
      <stop
         offset=".3"
         stop-color="#EBAB0D"
         id="stop1283" />
      <stop
         offset=".75"
         stop-color="#FFE187"
         id="stop1285" />
    </linearGradient>
  </defs>
  <sodipodi:namedview
     id="base"
     pagecolor="#ffffff"
     bordercolor="#666666"
     borderopacity="1.0"
     inkscape:pageopacity="0.0"
     inkscape:pageshadow="2"
     inkscape:zoom="1.979899"
     inkscape:cx="225.31458"
     inkscape:cy="829.11725"
     inkscape:document-units="mm"
     inkscape:current-layer="layer1"
     showgrid="false"
     inkscape:window-width="3368"
     inkscape:window-height="1385"
     inkscape:window-x="1992"
     inkscape:window-y="27"
     inkscape:window-maximized="1" />
  <metadata
     id="metadata5078">
    <rdf:RDF>
      <cc:Work
         rdf:about="">
        <dc:format>image/svg+xml</dc:format>
        <dc:type
           rdf:resource="http://purl.org/dc/dcmitype/StillImage" />
        <dc:title></dc:title>
      </cc:Work>
    </rdf:RDF>
  </metadata>
  <g
     inkscape:label="Ebene 1"
     inkscape:groupmode="layer"
     id="layer1">
    <path
       d="m 44.27371,72.747347 c 1.59676,-1.50548 2.38521,-3.087688 2.08121,-4.556125 -0.80037,-3.862917 -8.8728,-5.455709 -18.0303,-3.558646 -9.15776,1.897062 -15.93241,6.566958 -15.13205,10.429875 0.80037,3.862916 8.8728,5.458354 18.0303,3.561291 2.10423,-0.436562 4.08278,-1.018645 5.87242,-1.703916 5.08265,-0.272521 12.32615,1.537229 15.45326,2.410354 l 3.54012,-1.949979 C 48.56578,77.038888 45.43628,74.938097 44.27371,72.747347 Z"
       id="path708"
       inkscape:connector-curvature="0"
       style="clip-rule:evenodd;fill:#000000;fill-opacity:0.07999998;fill-rule:evenodd;stroke-width:0.26458332" />
    <path
       d="m 63.95236,58.05768 c -0.0392,0.161396 -0.29898,3.008312 -0.35137,3.172354 -0.98028,0.677333 -2.91465,3.542771 -3.75047,4.394729 a 14.815079,14.815079 0 0 0 -3.13981,4.661959 c -0.19156,0.383645 -0.37624,0.772583 -0.5543,1.16152 0.0281,1.69598 0.0579,3.391959 0.22092,5.072063 0.0902,0.933979 0.1024,0.759354 0.0857,0.288396 a 1.0485437,1.0485437 0 0 1 -0.0196,-0.06615 c -0.0339,-0.116417 -0.0566,-0.238125 -0.0683,-0.359833 -0.0154,-0.161396 -0.018,-0.322792 -0.008,-0.486834 a 1.355725,1.355725 0 0 1 -0.004,-0.22225 l -0.004,-0.248708 c -0.0116,-0.703792 0.0786,0.677333 0.10372,1.383771 0.0847,0.267229 0.23178,0.510646 0.42968,0.711729 l 0.16457,0.145521 c 0.0992,0.09525 0.20929,0.177271 0.32809,0.246062 l 0.20214,0.156104 0.12674,0.124355 0.0638,0.08467 c 0.006,0.02911 0.006,0.05821 10e-4,0.08731 l -0.0357,0.08731 c 0.0132,0.0635 0.0143,0.127 0.003,0.187855 -0.0132,0.08996 -0.0458,0.174625 -0.0955,0.251354 l -0.0733,0.100541 a 4.9889833,4.9889833 0 0 1 -3.50018,0.955146 c -1.41023,0.02381 -2.58551,-0.357187 -3.07102,-0.851958 -0.0159,0.0026 -0.0318,0.0053 -0.0476,0.0053 l -0.0765,-0.0979 c -0.0484,-0.07408 -0.0796,-0.15875 -0.0913,-0.246063 a 0.47863125,0.47863125 0 0 1 -0.003,-0.187854 l 0.0487,-0.07673 -10e-4,-0.08731 c 0.0743,-0.02381 0.0733,-0.08731 0.0733,-0.08731 0.0299,-0.04762 0.0669,-0.08996 0.11007,-0.127 0.0262,-0.02646 0.054,-0.05292 0.0831,-0.07673 0.0206,-0.02646 0.0421,-0.05027 0.0638,-0.07408 0.10927,-0.121708 0.2114,-0.246062 0.30559,-0.378354 0.0693,-0.0926 0.13044,-0.187854 0.1823,-0.291041 0.20796,-0.378355 0.34819,-1.674813 0.45509,-3.468688 -0.041,-0.240771 0.073,-3.630083 0.0145,-5.535083 -0.0585,-1.907646 -0.11404,-3.812646 -0.0646,-5.715 0.0929,-3.828521 0.27199,-7.686146 0.45138,-11.541125 l 2.6e-4,-0.0053 v -0.0053 c 0.0354,-0.756708 0.0706,-1.516062 0.10504,-2.27277 0.01,-0.121709 0.0415,-0.240771 0.0939,-0.34925 0.0272,-0.05821 0.0664,-0.111125 0.11536,-0.150813 0.0487,-0.04233 0.10583,-0.07408 0.16748,-0.08996 a 0.18335625,0.18335625 0 0 1 0.12462,-0.0026 c 0.10451,0.01852 0.20108,0.06879 0.27755,0.142875 0.0765,0.07408 0.12964,0.169333 0.15345,0.272521 0.0892,0.238125 0.17145,0.47625 0.24871,0.714375 0.0741,-0.264584 0.15214,-0.531813 0.23601,-0.796396 0.0225,-0.105833 0.0749,-0.203729 0.15108,-0.277813 0.0762,-0.07673 0.17277,-0.129645 0.27807,-0.153458 a 0.22198542,0.22198542 0 0 1 0.12462,-0.0026 h 0.0873 l 0.0873,-0.0026 c 0.0508,0.0344 0.0878,0.08731 0.10478,0.145521 0.0127,0.04233 0.0135,0.08996 0.003,0.132292 a 0.1190625,0.1190625 0 0 0 0.01,0.01852 c 0.0654,0.105833 0.10557,0.224896 0.11774,0.34925 l 0.11668,1.473729 5.3e-4,0.0053 c 0.32517,4.111625 0.65087,8.228541 0.89667,12.319 0.0945,1.595437 0.11457,3.196166 0.12145,4.796895 a 9.7975208,9.7975208 0 0 1 0.8636,-1.026583 c 0.87524,-1.076854 1.6891,-2.198687 2.43813,-3.3655 0.33443,-0.587375 0.70644,-1.169458 1.07738,-1.748896 h 2.7e-4 c 0.19341,-0.304271 0.38682,-0.605896 0.57414,-0.907521 a 21.216937,21.216937 0 0 0 1.37795,-2.627312 c 0.091,-0.1905 0.15743,-0.367771 0.22728,-0.555625 0.0781,-0.211667 0.16087,-0.433917 0.28813,-0.6985 0.16272,-0.338667 0.29687,-0.687917 0.42916,-1.034521 0.064,-0.166687 0.12779,-0.333375 0.19394,-0.494771 a 21.689748,21.689748 0 0 0 1.007,-3.193521 c 0.47599,-1.846791 1.04511,-3.66977 1.70524,-5.461 0.0227,-0.137583 0.1225,-0.137583 0.20955,-0.140229 a 21.001302,21.001302 0 0 1 -1.13321,6.871229 c -0.16007,0.563563 -0.32438,1.12448 -0.48816,1.68275 -0.33046,1.127125 -0.6596,2.248959 -0.94906,3.386667 z"
       id="path710"
       inkscape:connector-curvature="0"
       style="fill:#222222;stroke-width:0.26458332" />
    <path
       d="M 54.83878,65.862888 C 66.46987,65.669742 75.74325,56.091826 75.5509,44.471326 75.35881,32.850825 65.77401,23.587765 54.14266,23.778265 c -11.63134,0.19314 -20.90446,9.77106 -20.71237,21.391561 0.19235,11.6205 9.77714,20.883562 21.40849,20.693062 z"
       id="path712"
       style="fill:url(#paint39_linear);stroke-width:0.26458332"
       inkscape:connector-curvature="0" />
    <path
       d="m 42.81903,30.122975 a 0.974725,0.974725 0 0 0 0.53578,-0.28311 c 0.0616,-0.0767 0.1188,-0.15346 0.17118,-0.23548 0.0466,-0.082 0.0876,-0.16933 0.12224,-0.25664 0.0656,-0.17727 0.11774,-0.35984 0.15637,-0.54504 0.0437,-0.21961 0.0725,-0.44186 0.0865,-0.66411 -0.21617,0.037 -0.42968,0.0847 -0.63976,0.14817 -0.20241,0.0582 -0.39979,0.13229 -0.59002,0.22225 a 1.508125,1.508125 0 0 0 -0.26009,0.16139 1.3520208,1.3520208 0 0 0 -0.20082,0.1958 0.97498958,0.97498958 0 0 0 -0.18494,0.58737 c 0.003,0.20902 0.0751,0.41275 0.20399,0.57944 0.18521,0.0926 0.39529,0.12435 0.59955,0.09 z m -4.45691,3.9661 c 0.11721,-0.0794 0.21352,-0.18785 0.28019,-0.31221 0.0818,-0.16669 0.13494,-0.34396 0.15664,-0.52652 0.0156,-0.19844 0.0124,-0.39687 -0.01,-0.59267 0.0119,-0.22754 0.008,-0.45508 -0.0114,-0.68262 -0.21379,0.0767 -0.42069,0.17198 -0.61807,0.2831 -0.18336,0.10055 -0.35719,0.21696 -0.51964,0.34925 -0.16059,0.12436 -0.29103,0.28311 -0.38152,0.46302 a 0.85751458,0.85751458 0 0 0 0.0138,0.83609 c 0.0672,0.127 0.15822,0.24077 0.26829,0.33602 0.14208,0.0212 0.28681,0.0185 0.4281,-0.008 a 0.87868125,0.87868125 0 0 0 0.39343,-0.14552 z m -2.37437,9.79223 a 0.96916875,0.96916875 0 0 1 -0.43524,0.756708 c -0.12409,0.08467 -0.26088,0.150813 -0.40534,0.1905 a 1.2236979,1.2236979 0 0 1 -0.38285,-0.195791 0.91678125,0.91678125 0 0 1 -0.39291,-0.812267 c 0.0148,-0.21432 0.0672,-0.42598 0.15504,-0.62442 0.19765,-0.42333 0.46779,-0.80963 0.79852,-1.14036 0,0 0.17991,0.28046 0.36089,0.635 0.0937,0.1905 0.17198,0.38894 0.23363,0.59003 a 1.666875,1.666875 0 0 1 0.0683,0.6006 z m 5.03846,11.422062 c 0.14526,-0.251354 0.21034,-0.542395 0.1868,-0.833437 a 3.1093833,3.1093833 0 0 0 -0.62627,-1.389063 c -0.27887,-0.394229 -0.4871,-0.635 -0.4871,-0.635 -0.1696,0.177271 -0.31988,0.373063 -0.44768,0.582084 a 2.0801542,2.0801542 0 0 0 -0.38708,1.309687 c 0.0656,0.322792 0.20108,0.629709 0.39714,0.896938 a 2.2645687,2.2645687 0 0 0 0.73766,0.648229 1.4356292,1.4356292 0 0 0 0.62653,-0.579438 z m -2.33416,-1.248833 a 0.96811042,0.96811042 0 0 0 -0.2368,-0.41275 3.6054771,3.6054771 0 0 0 -1.13982,-0.661458 l -0.70565,-0.309563 c -0.0331,0.267229 -0.0286,0.53975 0.0135,0.806979 a 2.5037521,2.5037521 0 0 0 0.52838,1.359959 c 0.11218,0.129646 0.25611,0.227541 0.41777,0.280458 0.1614,0.05556 0.33444,0.06879 0.50218,0.03704 0.16325,-0.02646 0.32068,-0.08202 0.46435,-0.164042 a 1.7039167,1.7039167 0 0 0 0.16748,-0.460375 c 0.0357,-0.156104 0.032,-0.320146 -0.0114,-0.47625 z m 10.48174,6.971771 a 1.6801042,1.6801042 0 0 1 -0.068,1.177396 1.6933333,1.6933333 0 0 1 -0.32253,0.502708 l -0.18494,0.0026 a 2.1341292,2.1341292 0 0 1 -0.45059,-0.187854 1.6719021,1.6719021 0 0 1 -0.53604,-0.420688 1.6785167,1.6785167 0 0 1 -0.32729,-0.595312 2.2198542,2.2198542 0 0 1 0.17092,-1.431396 c 0.0982,-0.235479 0.21828,-0.463021 0.35851,-0.677333 0.20452,0.15875 0.39899,0.330729 0.58261,0.515937 a 3.3570333,3.3570333 0 0 1 0.77735,1.113896 z m -2.53868,0.254 a 1.0239375,1.0239375 0 0 0 -0.32464,-0.391583 3.1802917,3.1802917 0 0 0 -1.26286,-0.463021 7.9007229,7.9007229 0 0 0 -0.82841,-0.08467 c 0.0526,0.272521 0.12541,0.542396 0.21775,0.804333 a 2.7648958,2.7648958 0 0 0 0.78899,1.240896 c 0.13679,0.103188 0.29713,0.174625 0.46699,0.203729 a 1.0715625,1.0715625 0 0 0 0.50906,-0.03704 c 0.16669,-0.05821 0.32041,-0.150813 0.4527,-0.269875 0.0548,-0.161396 0.0815,-0.333375 0.0791,-0.505354 0.009,-0.171979 -0.0249,-0.343959 -0.0987,-0.497417 z m 1.26445,2.129896 a 1.5374937,1.5374937 0 0 0 -1.14777,0.01852 1.3573125,1.3573125 0 0 0 -0.46169,0.391583 1.3551958,1.3551958 0 0 0 -0.24289,0.552979 1.8171583,1.8171583 0 0 0 -0.0577,0.624417 c 0.26537,0.105833 0.54054,0.185208 0.82126,0.238125 0.48499,0.119062 0.99616,0.05556 1.43722,-0.179917 a 0.82841042,0.82841042 0 0 0 0.33761,-0.386292 c 0.0691,-0.161395 0.0852,-0.341312 0.0463,-0.513291 a 2.3124583,2.3124583 0 0 0 -0.11298,-0.357188 l -0.0704,-0.145521 -0.15716,-0.08467 z m -9.54114,-7.387167 a 1.5234708,1.5234708 0 0 1 0.81385,0.07144 c 0.2593,0.100541 0.48604,0.269875 0.65511,0.489479 l 0.001,0.0026 c 0.62918,0.171979 1.20888,0.49477 1.68804,0.941916 0.13918,0.201084 0.21061,0.441854 0.204,0.685271 a 1.1482917,1.1482917 0 0 1 -0.23971,0.674688 c -0.22755,0.111125 -0.48499,0.142875 -0.73316,0.09525 a 1.1596687,1.1596687 0 0 1 -0.64321,-0.36248 3.9872708,3.9872708 0 0 1 -0.45323,-1.227666 0.9858375,0.9858375 0 0 1 -0.48604,0.338666 2.5828625,2.5828625 0 0 1 -1.80816,-0.486833 1.7126479,1.7126479 0 0 1 0.35137,-0.732896 1.7261417,1.7261417 0 0 1 0.65008,-0.489479 z M 34.70611,45.741326 a 1.2752917,1.2752917 0 0 0 -0.36698,-0.343959 1.2260792,1.2260792 0 0 0 -0.50086,-0.132291 1.2490979,1.2490979 0 0 0 -0.5117,0.07937 c -0.17515,0.05821 -0.34105,0.137583 -0.49239,0.243416 -0.002,0.0635 -0.001,0.129646 0.003,0.193146 0.0397,0.140229 0.0907,0.275167 0.15266,0.407459 a 1.7724437,1.7724437 0 0 0 0.75539,0.957791 0.75141667,0.75141667 0 0 0 0.44132,0.08202 0.79004583,0.79004583 0 0 0 0.41355,-0.171979 c 0.0873,-0.06085 0.16483,-0.134938 0.22992,-0.219604 0.0315,-0.03704 0.0601,-0.07673 0.0855,-0.116417 a 1.8018125,1.8018125 0 0 0 -0.009,-0.515937 1.2652375,1.2652375 0 0 0 -0.20108,-0.463021 z m 2.57466,0.423333 a 1.3202708,1.3202708 0 0 1 -0.42836,0.354542 c -0.16643,0.08731 -0.34925,0.137583 -0.53631,0.148166 -0.17304,0.02117 -0.34872,0.0079 -0.51647,-0.03969 a 2.2225,2.2225 0 0 1 -0.10716,-0.600604 1.5470187,1.5470187 0 0 1 0.0556,-0.605896 c 0.0587,-0.198438 0.15558,-0.381 0.28549,-0.537104 a 1.9478625,1.9478625 0 0 1 1.11866,-0.613838 c 0.22331,-0.0476 0.45085,-0.0794 0.67971,-0.0873 0.006,0.0714 0.007,0.14288 0.003,0.214316 0.002,0.124355 0.005,0.309563 -0.0693,0.515938 a 3.3893125,3.3893125 0 0 1 -0.18388,0.642937 1.8203333,1.8203333 0 0 1 -0.30136,0.608542 z m -0.6522,-11.771314 a 1.152525,1.152525 0 0 1 0.14155,0.91017 c -0.0315,0.15875 -0.0847,0.30956 -0.15795,0.44979 -0.12939,0.0741 -0.26988,0.127 -0.41593,0.15346 -0.13626,0.037 -0.27993,0.0318 -0.41354,-0.0132 a 0.74374375,0.74374375 0 0 1 -0.33973,-0.23548 1.6930687,1.6930687 0 0 1 -0.24183,-1.08479 c -0.001,-0.15082 0.0159,-0.30163 0.0511,-0.44979 0.0148,-0.0582 0.0333,-0.11642 0.0556,-0.17463 a 1.6218958,1.6218958 0 0 1 0.50589,-0.008 1.1922125,1.1922125 0 0 1 0.81491,0.45244 z m 1.67666,1.9394 a 1.2260792,1.2260792 0 0 0 0.48472,-0.10848 2.7643667,2.7643667 0 0 0 0.89112,-0.82286 c 0.055,-0.0714 0.10583,-0.14552 0.15213,-0.22489 0.046,-0.0556 0.0876,-0.11377 0.12356,-0.17727 0.0408,-0.0556 0.0757,-0.11377 0.10399,-0.17727 -0.19103,-0.0873 -0.39132,-0.15611 -0.59691,-0.20373 a 1.9433646,1.9433646 0 0 0 -1.17713,0.0212 1.5763875,1.5763875 0 0 0 -0.75512,0.81756 c -0.0643,0.17462 -0.11033,0.35454 -0.13705,0.5371 0.12541,0.10584 0.26829,0.1905 0.42254,0.24607 0.15451,0.0635 0.32067,0.0953 0.48815,0.0926 z m 3.66263,23.815143 a 1.4938375,1.4938375 0 0 0 -0.79057,-0.174625 c -0.27834,0.07408 -0.53446,0.214313 -0.74639,0.410104 a 1.7568333,1.7568333 0 0 0 -0.47096,0.709084 2.613025,2.613025 0 0 0 1.77297,0.709083 c 0.83476,-0.121708 0.81889,-1.092729 0.81889,-1.092729 a 1.4896042,1.4896042 0 0 0 -0.58394,-0.560917 z m 2.30294,-1.412875 a 1.4782271,1.4782271 0 0 1 -0.27253,0.814917 c -0.16933,0.238125 -0.40534,0.420687 -0.67839,0.523875 a 2.3876,2.3876 0 0 1 -1.00171,-1.733021 3.0487937,3.0487937 0 0 1 1.00991,-1.894417 c 0.15505,0.201084 0.29316,0.41275 0.41302,0.635 0.0241,-0.03175 0.0503,-0.0635 0.078,-0.0926 0.10874,-0.119062 0.2413,-0.211666 0.38894,-0.275166 0.15346,-0.06085 0.32041,-0.08467 0.48524,-0.06615 0.14764,0.01323 0.29237,0.04498 0.42995,0.100541 0.10213,0.05027 0.20082,0.105834 0.29475,0.169334 l 0.10821,0.08731 c 0.0529,0.132292 0.0818,0.272521 0.0849,0.415396 0.004,0.142875 -0.0339,0.280458 -0.10795,0.402167 a 0.71702083,0.71702083 0 0 1 -0.30903,0.275166 c -0.33126,0.132292 -0.69718,0.148167 -1.03664,0.04498 0.0503,0.193145 0.0884,0.391583 0.11324,0.592666 z m -7.39088,-9.487958 c 0.0638,-0.142875 0.0926,-0.296333 0.0841,-0.452438 -0.0683,-0.423333 -0.2278,-0.830791 -0.46725,-1.187979 a 5.6298042,5.6298042 0 0 0 -0.41884,-0.613833 c -0.16113,0.193146 -0.30744,0.402167 -0.43735,0.619125 a 2.4667104,2.4667104 0 0 0 -0.38735,1.288521 c 0.007,0.166687 0.0569,0.328083 0.14446,0.470958 0.0876,0.140229 0.20981,0.256646 0.3556,0.338667 0.13811,0.07937 0.29131,0.129646 0.45006,0.148167 a 1.2506854,1.2506854 0 0 0 0.39475,-0.251355 0.96572917,0.96572917 0 0 0 0.28179,-0.359833 z m -1.41367,1.352021 a 1.4395979,1.4395979 0 0 1 0.73264,0.756708 c 0.0786,0.166688 0.14023,0.341313 0.18388,0.521229 -0.0159,0.04763 -0.0347,0.0926 -0.0564,0.137584 -0.0442,0.103187 -0.10133,0.203729 -0.17013,0.293687 -0.0868,0.134938 -0.21431,0.238125 -0.36406,0.293688 -0.14949,0.05821 -0.31353,0.0635 -0.46752,0.02117 A 1.8838333,1.8838333 0 0 1 34.33697,51.736784 C 34.19965,51.506597 34.088,51.265826 34.00386,51.011826 a 1.501775,1.501775 0 0 1 0.45165,-0.346604 1.2506854,1.2506854 0 0 1 1.0107,-0.06615 z m 2.28151,0.85725 a 1.5901458,1.5901458 0 0 0 0.83529,-0.674688 2.7834167,2.7834167 0 0 0 0.35004,-1.193271 c 0.002,-0.05556 0.004,-0.111125 0.005,-0.164041 0.0373,-0.07144 0.0728,-0.142875 0.10557,-0.216959 a 4.3359917,4.3359917 0 0 0 0.36539,-1.444625 l -0.009,-0.545041 c -0.0154,-0.07938 -0.0167,-0.161396 -0.004,-0.240771 l -0.002,-0.0979 -0.10001,-0.164042 a 1.2207875,1.2207875 0 0 0 -0.2876,-0.325437 0.55694792,0.55694792 0 0 0 -0.32756,-0.0979 c -0.11694,0 -0.23019,0.03969 -0.32438,0.108479 -0.0429,0.02381 -0.0818,0.05292 -0.11509,0.08996 l -0.12436,0.137583 c -0.086,0.08996 -0.21828,0.333375 -0.21828,0.333375 -0.11641,0.09525 -0.21934,0.203729 -0.30586,0.325437 a 2.8321,2.8321 0 0 0 -0.43021,1.04775 4.8569562,4.8569562 0 0 0 -0.0476,1.246188 c 0.008,0.07408 0.018,0.145521 0.0291,0.219604 a 1.4591771,1.4591771 0 0 0 -0.16139,1.182688 c 0.0468,0.201083 0.12567,0.391583 0.23309,0.568854 a 1.666875,1.666875 0 0 0 0.53367,-0.09525 z m 0.60669,-12.737041 a 1.038225,1.038225 0 0 1 -0.41831,0.49742 c -0.18891,0.11641 -0.41037,0.16933 -0.63156,0.15345 a 1.031875,1.031875 0 0 1 -0.46699,-1.16945 2.5024292,2.5024292 0 0 1 0.78158,-0.98425 2.263775,2.263775 0 0 1 0.41354,-0.2884 l 0.18309,-0.11113 0.0521,0.20373 c 0.001,0.0741 0.0272,0.17463 0.0566,0.28575 0.0164,0.0635 0.0336,0.12965 0.0487,0.19844 0.0952,0.39952 0.0886,0.81756 -0.0188,1.21444 z m -1.70498,1.40758 a 1.1490854,1.1490854 0 0 0 -0.25453,-0.44979 1.3043958,1.3043958 0 0 0 -0.90037,-0.3175 1.9896667,1.9896667 0 0 0 -0.51435,0.0767 c -0.0145,0.21696 -0.0111,0.43656 0.0109,0.65088 0.0161,0.19579 0.055,0.38629 0.11641,0.5715 0.0667,0.18785 0.17225,0.35718 0.30983,0.5027 a 0.75459167,0.75459167 0 0 0 0.81068,0.17992 1.1993562,1.1993562 0 0 0 0.39555,-0.21167 l -0.002,-0.14552 c 0.0349,-0.11112 0.0558,-0.22489 0.0624,-0.34131 a 1.1615208,1.1615208 0 0 0 -0.0341,-0.51594 z m 2.37728,-0.74612 -0.0151,0.0185 c -0.29236,0.0265 -0.57758,0.11377 -0.83635,0.25664 a 1.5896167,1.5896167 0 0 0 -0.64531,0.98425 3.5851042,3.5851042 0 0 0 -0.0807,0.41804 0.82020833,0.82020833 0 0 0 0.003,0.17463 c 0.14525,0.0873 0.30427,0.15081 0.47016,0.18785 0.13441,0.0291 0.27252,0.0344 0.40878,0.0185 -0.008,0.12171 -0.013,0.24077 -0.0135,0.36248 0.23707,-0.0238 0.47122,-0.0741 0.69824,-0.14816 a 2.3185437,2.3185437 0 0 0 1.14591,-0.71703 2.0444354,2.0444354 0 0 0 0.42756,-1.21443 c 0.0183,-0.21432 0.0145,-0.43392 -0.0109,-0.65088 a 1.5710958,1.5710958 0 0 0 -0.52731,-0.11641 1.2099396,1.2099396 0 0 0 -0.56409,0.0873 c -0.17807,0.0741 -0.33602,0.1905 -0.46038,0.33866 z m 2.30664,-9.39007 c 0.055,0.14288 0.078,0.29898 0.0669,0.45244 a 1.0654771,1.0654771 0 0 1 -0.12991,0.44186 c -0.0701,0.13758 -0.1561,0.26723 -0.25638,0.38364 -0.13097,0.045 -0.26961,0.0635 -0.40772,0.0556 a 0.71411042,0.71411042 0 0 1 -0.63977,-0.43657 c -0.13229,-0.34396 -0.13837,-0.72231 -0.0177,-1.06891 0.0593,-0.19844 0.13758,-0.3863 0.23389,-0.56886 0.16034,0.0159 0.31803,0.0529 0.46884,0.10848 0.15134,0.0529 0.29025,0.13494 0.40746,0.24342 0.11747,0.10848 0.21087,0.24077 0.27437,0.38893 z m 1.10305,2.22515 c 0.16907,0.0344 0.34343,0.0265 0.50959,-0.0159 a 2.6950458,2.6950458 0 0 0 1.06944,-0.6403 c 0.17674,-0.14816 0.34317,-0.30691 0.49821,-0.47625 -0.16748,-0.11906 -0.34501,-0.22225 -0.53049,-0.3122 a 1.8899187,1.8899187 0 0 0 -1.15173,-0.20373 1.4724062,1.4724062 0 0 0 -0.89455,0.61648 c -0.078,0.10583 -0.14764,0.2196 -0.2085,0.33602 -0.0259,0.045 -0.0479,0.0952 -0.0659,0.14552 0.0796,0.13493 0.18415,0.25135 0.30745,0.34396 a 1.127125,1.127125 0 0 0 0.46646,0.20637 z m -2.85671,18.227147 a 0.97393125,0.97393125 0 0 1 -0.0984,-0.555625 c 0.0228,-0.1905 0.1016,-0.370417 0.22649,-0.515938 0.10953,-0.134937 0.24712,-0.248708 0.40322,-0.328083 h 0.002 a 0.40825208,0.40825208 0 0 1 -0.041,-0.03704 1.6380354,1.6380354 0 0 1 -0.39529,-0.965729 2.2537208,2.2537208 0 0 1 -0.009,-0.523875 1.3787437,1.3787437 0 0 1 1.26894,0.240771 c 0.10425,0.100541 0.18495,0.22225 0.23601,0.357187 0.0511,0.134938 0.0712,0.280459 0.059,0.425979 -0.003,0.145521 -0.0307,0.291042 -0.0804,0.428625 -0.10292,0.08731 -0.2204,0.153459 -0.34687,0.201084 h -5.3e-4 c 0.0762,0.0291 0.14844,0.06879 0.21485,0.119062 0.12144,0.08731 0.22039,0.203729 0.28945,0.338667 0.12779,0.375708 0.19976,0.767292 0.21378,1.161521 0.007,0.410104 0.10981,0.767291 0.10981,0.767291 a 2.7233562,2.7233562 0 0 1 -0.80989,-0.142875 2.1156083,2.1156083 0 0 1 -1.24196,-0.97102 z m 8.35316,6.384395 c 0.0534,0.150813 0.14394,0.28575 0.263,0.39423 a 3.349625,3.349625 0 0 0 1.16761,0.584729 c 0.0431,0.01588 0.0862,0.0344 0.12885,0.05027 h 2.6e-4 c 0.15002,0.06085 0.29078,0.116416 0.38947,0.116416 l 0.22489,0.07408 c 0.01,-0.261938 -0.009,-0.52123 -0.0564,-0.777875 0.12621,0.235479 0.28522,0.452437 0.47281,0.642937 0.14738,0.156104 0.30242,0.301625 0.46461,0.439209 0.11642,-0.169334 0.21775,-0.34925 0.30242,-0.53975 0.17965,-0.354542 0.23786,-0.756709 0.16563,-1.148292 a 1.3546667,1.3546667 0 0 0 -0.2458,-0.492125 C 51.09568,56.028321 50.9528,55.906613 50.79035,55.8193 a 2.0936479,2.0936479 0 0 0 -0.50959,-0.216958 c -0.12091,0.105833 -0.22119,0.232833 -0.29554,0.375708 a 1.1440583,1.1440583 0 0 0 -0.15319,0.552979 c -0.10107,-0.211666 -0.23284,-0.407458 -0.39238,-0.582083 a 0.95779167,0.95779167 0 0 0 -0.45111,-0.269875 0.96123125,0.96123125 0 0 0 -0.52626,0.0026 c -0.16034,0.03704 -0.31141,0.105833 -0.44424,0.201083 a 1.4684375,1.4684375 0 0 0 -0.12832,0.470958 c -0.0251,0.15875 -0.0103,0.320146 0.0431,0.473604 z m 0.12621,-2.013479 a 1.3821833,1.3821833 0 0 1 -1.06151,-0.06085 2.1140208,2.1140208 0 0 1 -0.47202,-0.293687 1.3427604,1.3427604 0 0 1 -0.0664,-0.484188 0.84402083,0.84402083 0 0 1 0.13018,-0.463021 c 0.0876,-0.137583 0.21378,-0.246062 0.36301,-0.312208 a 1.9309292,1.9309292 0 0 1 1.27423,-0.02117 c 0.24183,0.06615 0.47519,0.15875 0.69559,0.280459 a 1.8539354,1.8539354 0 0 1 -0.11721,0.563562 1.2951354,1.2951354 0 0 1 -0.28575,0.478896 c -0.12885,0.134937 -0.28575,0.243417 -0.46011,0.312208 z m -2.6035,1.394354 c -0.027,0.193146 -0.014,0.386292 0.0378,0.574146 0.12965,0.4445 0.35216,0.85725 0.65246,1.211792 0.0786,0.108479 0.16113,0.198437 0.23098,0.275167 0.0365,0.03969 0.0693,0.07673 0.0966,0.108479 l 0.14843,0.145521 c 0.15611,-0.187855 0.2929,-0.388938 0.40852,-0.600605 a 2.0629562,2.0629562 0 0 0 0.29925,-1.317625 1.6623771,1.6623771 0 0 0 -0.71782,-1.037166 1.9415125,1.9415125 0 0 0 -0.19156,-0.124354 c 0.0188,-0.156105 0.008,-0.314855 -0.0323,-0.465667 A 2.4976667,2.4976667 0 0 0 46.13502,54.379972 C 46.02786,54.210638 45.90483,54.051888 45.76698,53.909013 45.62675,53.73968 45.47462,53.578284 45.31164,53.430117 a 3.3390417,3.3390417 0 0 0 -0.33179,0.53975 c -0.19659,0.370417 -0.26802,0.79375 -0.20373,1.209146 a 1.4491229,1.4491229 0 0 0 0.64717,0.883709 c 0.0175,0.01323 0.0349,0.02381 0.0527,0.03439 a 1.4869583,1.4869583 0 0 0 -0.0204,0.111125 z m 8.20896,9.847792 a 0.866775,0.866775 0 0 1 -0.66278,-0.658812 c -0.0196,-0.105834 -0.0214,-0.214313 -0.005,-0.320146 a 0.58605208,0.58605208 0 0 1 -0.002,-0.137584 c 0.0458,-0.05292 0.0942,-0.103187 0.14446,-0.150812 -0.007,-0.01058 -0.0143,-0.02381 -0.0212,-0.0344 A 1.050925,1.050925 0 0 1 52.9667,64.08753 c -0.1016,0.05821 -0.21669,0.08996 -0.33496,0.0926 a 0.68765208,0.68765208 0 0 1 -0.4961,-0.195783 c -0.0222,0.02646 -0.0463,0.05292 -0.0725,0.07937 -0.0915,0.08731 -0.2032,0.150812 -0.32517,0.187854 -0.12965,0.02646 -0.26062,0.04498 -0.39212,0.05027 0.096,0.121708 0.19659,0.235479 0.30137,0.34925 a 5.5369354,5.5369354 0 0 1 0.8837,1.074208 c 0.12621,0.214312 0.21564,0.449792 0.26459,0.695854 0.0489,0.216958 0.0754,0.436563 0.0791,0.658813 0.005,0.232833 -0.0169,0.465666 -0.0664,0.690562 -0.11007,-0.03175 -0.21776,-0.07408 -0.32306,-0.119062 l -0.34369,-0.1905 c -0.11457,-0.05292 -0.26326,-0.142875 -0.41196,-0.230188 -0.0299,-0.01852 -0.0595,-0.0344 -0.0892,-0.05292 -0.37306,-0.230187 -0.70644,-0.521229 -0.98716,-0.85725 a 2.2039792,2.2039792 0 0 1 -0.45455,-1.005416 c -0.0484,-0.248709 -0.008,-0.508 0.11456,-0.73025 0.0852,-0.129646 0.20055,-0.238125 0.33629,-0.314854 h -0.0984 l -0.18468,0.0026 -0.16537,0.0026 c 0.009,-0.05556 0.0246,-0.111125 0.0458,-0.164041 0.0201,-0.06615 0.045,-0.127 0.0749,-0.187855 0.0357,-0.07408 0.0767,-0.14552 0.12277,-0.214312 a 1.6200437,1.6200437 0 0 1 0.91096,-0.812271 0.75670833,0.75670833 0 0 1 0.39899,-0.01323 c 0.13176,0.0291 0.25347,0.0926 0.35322,0.185208 0.0762,0.06879 0.14314,0.145521 0.19923,0.232834 a 1.4737292,1.4737292 0 0 1 0.79216,-0.277813 c 0.24501,-0.01588 0.48842,-0.05027 0.72814,-0.100542 l 0.15584,-0.0026 c 0,0 -0.0577,0.07938 -0.14235,0.206375 0.0603,-0.02911 0.12144,-0.05556 0.18336,-0.07937 l 0.12647,-0.0026 c 0.099,0.01852 0.19685,0.04233 0.29316,0.07144 a 0.53710417,0.53710417 0 0 1 0.42809,0.595313 c -0.009,0.103187 -0.0373,0.203729 -0.0828,0.293687 -0.0574,0.100542 -0.12435,0.195792 -0.19949,0.28575 -0.0812,0.0979 -0.17251,0.185209 -0.27226,0.261938 0.2667,0.121708 0.5162,0.280458 0.74163,0.468312 l 0.56171,0.418042 c -0.18574,0.161396 -0.3892,0.296333 -0.60643,0.410104 a 1.9473333,1.9473333 0 0 1 -1.34911,0.206375 z m 9.44325,-4.360333 c 0.13467,-0.0291 0.26061,-0.08996 0.36777,-0.177271 0.26008,-0.256646 0.47836,-0.550333 0.64717,-0.875771 l 0.25611,-0.402167 0.11404,-0.166687 -0.19553,-0.05556 a 2.2698604,2.2698604 0 0 0 -0.51673,-0.06879 c -0.45111,-0.02117 -0.89694,0.105833 -1.26868,0.359833 -0.12409,0.09525 -0.22145,0.219604 -0.28231,0.359834 a 0.89032292,0.89032292 0 0 0 -0.0643,0.455083 c 0.0185,0.140229 0.0638,0.277812 0.13309,0.404812 0.12303,0.07673 0.25903,0.132292 0.40164,0.15875 0.13335,0.0344 0.27305,0.03704 0.40772,0.0079 z m -1.72668,-0.325438 a 1.1086042,1.1086042 0 0 1 -0.17012,0.896938 c -0.0897,0.127 -0.19553,0.243416 -0.31539,0.343958 a 1.0726208,1.0726208 0 0 1 -0.41936,-0.05027 0.78660625,0.78660625 0 0 1 -0.5543,-0.574146 1.4676437,1.4676437 0 0 1 0.1008,-0.973666 c 0.072,-0.185208 0.16722,-0.359834 0.28311,-0.521229 0,0 0.89773,0.150812 1.07526,0.878416 z m 0.82762,2.465917 a 1.1138958,1.1138958 0 0 0 0.52732,0.03969 3.2893,3.2893 0 0 0 1.15887,-0.52652 l 0.36592,-0.238125 0.13441,-0.100542 C 64.25266,62.85193 64.09364,62.709055 63.92113,62.582055 a 1.7697979,1.7697979 0 0 0 -1.11574,-0.399521 c -0.37307,0.04763 -0.71597,0.230188 -0.96467,0.510646 a 2.6421292,2.6421292 0 0 0 -0.37174,0.463021 c 0.0738,0.150812 0.17145,0.28575 0.28892,0.404812 0.12594,0.127 0.28046,0.219604 0.45085,0.275167 z M 40.30654,42.021285 c -0.006,-0.15875 0.0286,-0.3175 0.0992,-0.46038 0.0706,-0.14552 0.17569,-0.26987 0.3056,-0.36248 0.12938,-0.09 0.27278,-0.15875 0.42492,-0.20108 a 1.61925,1.61925 0 0 1 0.43127,0.19844 c 0.13308,0.0794 0.24315,0.19314 0.32041,0.32808 0.0773,0.13229 0.11853,0.28575 0.12065,0.44186 a 2.72415,2.72415 0 0 1 -0.35005,1.2012 7.6279375,7.6279375 0 0 1 -0.36883,0.64823 c -0.18018,-0.17727 -0.34316,-0.37041 -0.4863,-0.57679 a 2.3005521,2.3005521 0 0 1 -0.49689,-1.21708 z m 1.34488,-1.95792 c 0.0844,0.13759 0.19738,0.25665 0.33099,0.34661 0.31936,0.18256 0.69612,0.23548 1.05331,0.14816 a 2.5180396,2.5180396 0 0 0 0.51276,-0.18256 c -0.0296,-0.19579 -0.0783,-0.38629 -0.14578,-0.5715 a 1.8785417,1.8785417 0 0 0 -0.64744,-0.91281 0.81703333,0.81703333 0 0 0 -0.18097,-0.0953 0.8556625,0.8556625 0 0 0 -0.21299,-0.1905 1.0914062,1.0914062 0 0 0 -0.39159,-0.14817 1.0136187,1.0136187 0 0 0 -0.4183,0.0159 c -0.13494,0.0344 -0.26485,0.0847 -0.38656,0.15081 0.0272,0.1614 0.0656,0.32015 0.11483,0.47625 0.0421,0.15346 0.1106,0.29634 0.20108,0.42334 0.003,0.0291 0.007,0.0582 0.0116,0.0873 0.0204,0.16139 0.0744,0.31485 0.15902,0.45243 z m 2.5228,10.660065 c 0.0296,0.148167 0.0966,0.28575 0.19421,0.399521 a 2.1891625,2.1891625 0 0 0 1.05198,0.661458 c 0.15875,0.05556 0.32226,0.09525 0.48869,0.119063 l 0.20425,-0.0026 c 0,0 0.0667,-0.07937 -0.003,-0.203729 -0.0701,-0.127 -0.073,-0.301625 -0.0762,-0.486834 a 2.5743958,2.5743958 0 0 0 -0.42703,-1.108604 0.86862708,0.86862708 0 0 0 -0.34608,-0.259292 0.84534375,0.84534375 0 0 0 -0.42783,-0.05821 c -0.14949,0.0079 -0.2966,0.03969 -0.4363,0.0926 -0.0855,0.124354 -0.15213,0.259292 -0.19764,0.402167 a 0.88820625,0.88820625 0 0 0 -0.0246,0.4445 z m 0.52838,-1.754188 a 1.3091583,1.3091583 0 0 1 -0.69559,-0.179916 1.2554479,1.2554479 0 0 1 -0.32597,-0.272521 2.6135542,2.6135542 0 0 1 -0.47519,0.563562 l -0.0479,0.03175 c 0.0381,0.04498 0.0746,0.0926 0.10927,0.142875 a 1.812925,1.812925 0 0 1 0.3982,1.129771 c -0.0849,0.648229 -0.39952,1.243542 -0.88688,1.677459 a 6.5203917,6.5203917 0 0 1 -0.45932,-0.71173 2.9167667,2.9167667 0 0 1 -0.4027,-1.394354 c 0.004,-0.179916 0.0513,-0.357187 0.13653,-0.518583 0.0381,-0.07144 0.0836,-0.137583 0.13573,-0.201083 a 1.1369146,1.1369146 0 0 1 -0.29607,-0.134938 c -0.005,-0.179917 0.0153,-0.359833 0.0593,-0.534458 a 1.6488833,1.6488833 0 0 1 0.53949,-0.912813 2.4259646,2.4259646 0 0 1 1.66819,-0.320146 c -0.005,0.02117 -0.0103,0.03969 -0.0156,0.06086 0.0492,-0.01852 0.10002,-0.03175 0.15214,-0.04233 a 1.7920229,1.7920229 0 0 1 1.04616,0.301625 c 0.16537,0.103188 0.32041,0.22225 0.46329,0.351896 -0.0685,0.15875 -0.15769,0.306917 -0.26511,0.441854 a 1.3051896,1.3051896 0 0 1 -0.83794,0.521229 z m 7.52104,8.196792 A 0.889,0.889 0 0 1 51.9752,56.843242 c -0.0564,-0.127 -0.082,-0.264583 -0.0751,-0.402166 a 1.2488333,1.2488333 0 0 1 0.081,-0.410104 c 0.10821,-0.08731 0.23257,-0.156105 0.36644,-0.198438 a 0.84560833,0.84560833 0 0 1 0.42942,-0.0291 c 0.14314,0.02646 0.27755,0.08731 0.39026,0.179917 a 2.1902208,2.1902208 0 0 1 0.61066,1.021291 l 0.003,0.0079 c 0.23945,0.132291 0.46091,0.293687 0.65696,0.486833 a 1.2948708,1.2948708 0 0 1 0.37598,0.965729 c 0.003,0.17198 -0.0267,0.343959 -0.0889,0.505354 l -0.16537,0.0026 c -0.14208,0.01852 -0.28548,0.02117 -0.42809,0.0079 -0.18627,-0.01058 -0.37042,-0.04498 -0.54663,-0.108479 -0.19553,-0.07937 -0.37042,-0.20373 -0.51197,-0.359834 a 1.9415125,1.9415125 0 0 1 -0.42627,-1.124361 c -0.14684,-0.06085 -0.2884,-0.137583 -0.42307,-0.22225 z m -0.72311,-1.947333 a 1.1768667,1.1768667 0 0 0 0.45562,-0.100542 1.0556875,1.0556875 0 0 0 0.36856,-0.28575 c 0.10054,-0.119062 0.1733,-0.261937 0.21352,-0.41275 0.05,-0.161396 0.0736,-0.328083 0.0696,-0.497417 l -0.17648,-0.07408 a 2.5791583,2.5791583 0 0 0 -0.44,-0.140229 1.5644812,1.5644812 0 0 0 -1.08796,0.116417 0.85989583,0.85989583 0 0 0 -0.34502,0.49477 c -0.0521,0.198438 -0.0302,0.41275 0.0614,0.597959 0.13229,0.08731 0.27384,0.161396 0.42201,0.216958 a 1.1853333,1.1853333 0 0 0 0.45879,0.08467 z m 1.56105,6.328833 a 1.8420292,1.8420292 0 0 1 -0.16537,-0.182562 1.7084146,1.7084146 0 0 0 -0.95514,-0.0926 l -0.27226,0.0053 -0.23363,0.0026 -0.16536,0.0026 -0.0582,0.0026 c 0.0614,0.182562 0.14605,0.357187 0.25188,0.521229 a 1.9044708,1.9044708 0 0 0 0.77206,0.79375 1.3202708,1.3202708 0 0 0 0.97393,0.06085 c 0.10636,-0.04233 0.20955,-0.0926 0.30903,-0.150813 0.0357,-0.02646 0.068,-0.05556 0.0958,-0.08996 a 1.1464396,1.1464396 0 0 0 -0.17224,-0.404812 c -0.0701,-0.119063 -0.15346,-0.227542 -0.24845,-0.325438 -0.0421,-0.05027 -0.0876,-0.09525 -0.13202,-0.142875 z m -0.97235,-3.087687 c 0.14605,0.02646 0.28364,0.08731 0.40058,0.179916 0.11695,0.08996 0.20955,0.209021 0.26961,0.343959 0.0672,0.129646 0.11245,0.272521 0.13335,0.415396 a 1.2911667,1.2911667 0 0 1 -0.24659,0.383645 c -0.10742,0.113771 -0.24209,0.198438 -0.39105,0.246063 -0.14923,0.04498 -0.30771,0.05292 -0.46064,0.02117 a 1.5888229,1.5888229 0 0 1 -0.58817,-0.251358 c -0.18653,-0.11377 -0.35878,-0.246062 -0.5125,-0.402166 a 4.3267312,4.3267312 0 0 1 -0.46646,-0.545042 5.5006875,5.5006875 0 0 1 0.66728,-0.243417 5.8552292,5.8552292 0 0 1 0.60087,-0.148166 1.7211146,1.7211146 0 0 1 0.59372,0 z m 1.66291,1.489604 c -0.14923,0.07937 -0.28099,0.187854 -0.38735,0.3175 a 1.1948583,1.1948583 0 0 0 -0.13018,0.965729 c 0.0323,0.174625 0.091,0.343958 0.17384,0.502708 0.23256,-0.01588 0.46302,-0.05292 0.68897,-0.108479 a 1.8436167,1.8436167 0 0 0 0.96255,-0.640292 c 0.0796,-0.126999 0.12065,-0.27252 0.11801,-0.423333 a 0.77258333,0.77258333 0 0 0 -0.13203,-0.420687 c -0.0823,-0.132292 -0.18627,-0.248709 -0.30718,-0.343959 a 2.3098125,2.3098125 0 0 0 -0.50588,0.0079 c -0.16828,0.01323 -0.33179,0.0635 -0.48075,0.142875 z m -9.48902,-4.974167 a 0.84163958,0.84163958 0 0 0 -0.245,-0.328083 2.4550687,2.4550687 0 0 0 -1.03876,-0.439208 c -0.36221,-0.14023 -0.66384,-0.134938 -0.66384,-0.134938 0.0172,0.230188 0.0566,0.457729 0.11827,0.677333 a 2.2992292,2.2992292 0 0 0 0.59161,1.050396 c 0.10954,0.0979 0.24262,0.166688 0.38629,0.198438 0.14367,0.03175 0.29316,0.02646 0.43392,-0.01852 0.13652,-0.03704 0.26432,-0.103188 0.37624,-0.1905 0.0569,-0.129646 0.0907,-0.267229 0.10027,-0.410104 a 0.83740625,0.83740625 0 0 0 -0.059,-0.404814 z m -1.67931,-8.207375 a 0.90937292,0.90937292 0 0 1 -0.32358,0.484188 c -0.1577,0.121708 -0.35111,0.187854 -0.5506,0.1905 a 0.98451458,0.98451458 0 0 1 -0.40984,-0.399521 c -0.0931,-0.171979 -0.13229,-0.370417 -0.11218,-0.563563 a 2.2780625,2.2780625 0 0 1 0.54901,-0.923395 c 0.14234,-0.153459 0.29236,-0.29898 0.45032,-0.433917 0.0997,0.185208 0.18441,0.378354 0.25267,0.579437 0.13679,0.336021 0.18627,0.703792 0.1442,1.066271 z m 0.93213,-8.860894 c 0.12277,-0.14023 0.19579,-0.31486 0.20717,-0.50006 a 1.9468042,1.9468042 0 0 0 -0.29872,-1.00807 c -0.10054,-0.16404 -0.21378,-0.32279 -0.33866,-0.46831 -0.11721,0.15346 -0.22516,0.31485 -0.3228,0.48154 a 2.19075,2.19075 0 0 0 -0.33416,0.97631 c 0.009,0.17992 0.0725,0.3519 0.18282,0.49213 0.11033,0.14023 0.26194,0.24342 0.43339,0.29633 0.18256,-0.037 0.34819,-0.12964 0.47096,-0.26987 z m 0.78317,1.80975 a 0.97102083,0.97102083 0 0 0 0.363,-0.254 2.4593021,2.4593021 0 0 0 0.49636,-1.17475 c 0.0484,-0.2249 0.0804,-0.45509 0.0958,-0.68263 a 2.2648333,2.2648333 0 0 0 -1.46923,0.59796 1.5136812,1.5136812 0 0 0 -0.34369,0.97631 c -0.0188,0.16934 -0.0159,0.33867 0.008,0.50536 0.13017,0.0582 0.26881,0.09 0.41037,0.10054 0.14975,0.0106 0.30003,-0.0106 0.4392,-0.0688 z"
       id="path714"
       inkscape:connector-curvature="0"
       style="clip-rule:evenodd;fill:#dda006;fill-rule:evenodd;stroke-width:0.26458332" />
    <path
       d="m 57.42217,23.794135 a 0.889,0.889 0 0 1 -0.16748,0.20109 c 0.10478,0.0873 0.20267,0.17991 0.2921,0.2831 0,0 -0.19182,0.15875 -0.44185,0.33602 -0.14632,0.11377 -0.30851,0.20638 -0.48101,0.26988 h 0.0767 a 1.0424583,1.0424583 0 0 1 0.27225,-0.005 c 0.1278,-0.0106 0.25638,0.0106 0.37412,0.0635 0.11774,0.0503 0.22146,0.127 0.30216,0.22755 0.17542,0.25929 0.26537,0.5662 0.2577,0.88106 0.0159,0.16669 0.0185,0.33602 0.009,0.50535 -0.11327,-0.0265 -0.2244,-0.0608 -0.33261,-0.10318 -0.0773,0.003 -0.16801,-0.0503 -0.26115,-0.10584 -0.0238,-0.0159 -0.0479,-0.0291 -0.0722,-0.0423 -0.12753,-0.0926 -0.24077,-0.20108 -0.33602,-0.32544 a 1.0988146,1.0988146 0 0 1 -0.30374,-0.70379 1.1527896,1.1527896 0 0 1 -0.007,-0.381 c -0.10319,0.037 -0.20955,0.0661 -0.3183,0.0847 -0.53525,0.008 -0.74083,-0.65882 -0.74083,-0.65882 0.0148,-0.12964 0.0489,-0.254 0.10107,-0.37041 a 0.66145833,0.66145833 0 0 1 0.56726,-0.39952 h 0.009 c 0.004,-0.0794 0.0227,-0.15875 0.0556,-0.23548 0.0624,-0.127 0.14949,-0.24342 0.25638,-0.33867 0.10689,-0.0952 0.23178,-0.16669 0.36698,-0.21431 0.10349,-0.0423 0.21038,-0.0767 0.31939,-0.10319 l 0.14605,-0.003 c 0.0698,0.11642 0.12117,0.24342 0.15213,0.37571 0.0624,0.25665 0.0288,0.52652 -0.0945,0.762 z m -7.70307,1.54252 c 0.10689,-0.1217 0.18309,-0.26723 0.21933,-0.42862 a 1.1030479,1.1030479 0 0 0 -0.18838,-0.80433 1.6046979,1.6046979 0 0 0 -0.27781,-0.32544 c -0.16298,0.0794 -0.31512,0.17991 -0.45244,0.29898 a 1.2996333,1.2996333 0 0 0 -0.43947,0.69585 c -0.0929,-0.003 -0.18574,0.003 -0.27834,0.0159 a 0.68791667,0.68791667 0 0 0 -0.32729,0.19314 c -0.0884,0.0953 -0.14738,0.21431 -0.16987,0.34131 -0.0201,0.13494 -0.0177,0.27253 0.007,0.40746 0.0696,0.13494 0.16034,0.25929 0.26882,0.36513 0.0802,0.0873 0.18177,0.15346 0.29475,0.1905 0.11324,0.037 0.23415,0.045 0.3511,0.0238 a 1.9473333,1.9473333 0 0 0 0.7194,-0.62442 c 0.0955,-0.11377 0.1868,-0.23018 0.27358,-0.34925 z m 3.75734,-0.66145 c 0.28628,0.0714 0.55933,0.1852 0.80989,0.33866 l 0.003,-0.0212 c 0.13495,-0.0609 0.27915,-0.10055 0.42652,-0.11378 0.15134,-0.0264 0.30639,-0.0185 0.45482,0.0212 0.14843,0.0397 0.28654,0.10848 0.40508,0.20638 0.12806,0.12964 0.2368,0.27516 0.32385,0.43391 0.10636,0.008 0.21219,0.0265 0.31644,0.0529 0.19129,0.0529 0.36671,0.15346 0.51117,0.2884 0.14473,0.13758 0.254,0.30691 0.31909,0.49477 0.0669,0.17727 0.1061,0.36248 0.11615,0.55033 -0.15531,0.11642 -0.32358,0.21431 -0.50112,0.29104 -0.36168,0.17463 -0.76993,0.23019 -1.16496,0.15611 a 2.9151792,2.9151792 0 0 1 -0.97075,-0.45244 c -0.0357,0 -0.0712,0.003 -0.1069,0.003 a 1.3459354,1.3459354 0 0 1 -1.03769,-0.381 2.1394208,2.1394208 0 0 1 -0.44873,-1.23825 c -0.027,-0.24342 -0.031,-0.49213 -0.0122,-0.73819 0.18732,0.0265 0.37306,0.0635 0.55641,0.10848 z m 12.67513,3.31787 a 1.3758333,1.3758333 0 0 1 -0.0212,0.62971 1.3639271,1.3639271 0 0 1 -0.30003,0.55298 2.0783021,2.0783021 0 0 1 -0.44054,0.41539 c -0.19261,-0.0847 -0.37411,-0.19314 -0.54054,-0.32014 a 2.1375687,2.1375687 0 0 1 -0.75644,-1.02923 3.3535937,3.3535937 0 0 1 -0.0934,-1.51342 c 0.003,-0.0212 0.005,-0.0397 0.008,-0.0582 -0.0735,0.0106 -0.14817,0.0159 -0.22304,0.0159 0.0154,0.0688 0.023,0.13758 0.0233,0.20902 a 1.1879792,1.1879792 0 0 1 -0.0807,0.42069 c -0.14949,0.0106 -0.29793,0.0344 -0.44424,0.0688 0.0119,0.0794 0.0188,0.15875 0.0212,0.23812 0.0138,0.13494 0.019,0.26988 0.0159,0.40746 0.0227,0.0212 0.0444,0.0423 0.0648,0.0662 0.0281,-0.0212 0.0587,-0.0423 0.0915,-0.0582 0.0664,-0.0185 0.13705,-0.0212 0.20426,-0.003 l 0.0778,-0.003 c 0.0688,0.10583 0.11086,0.2249 0.1225,0.34925 0.0251,0.2249 0.002,0.45508 -0.0667,0.67204 a 1.4816667,1.4816667 0 0 0 -0.0984,0.508 c 0.0135,0.0159 0.0122,0.0212 0,0.0106 v -0.003 l -5.3e-4,0.003 c -0.0354,-0.0265 -0.15715,-0.15346 -0.27119,-0.34396 a 2.2489583,2.2489583 0 0 1 -0.16139,0.14817 c 0.0781,0.127 0.12223,0.20902 0.12223,0.20902 a 3.3893125,3.3893125 0 0 1 -2.03676,0.40217 0.91413542,0.91413542 0 0 1 -0.59637,-0.75671 1.7129125,1.7129125 0 0 1 -0.009,-0.54504 c 0.0953,-0.14552 0.21061,-0.27517 0.34263,-0.38629 -0.0185,-0.0318 -0.0288,-0.0476 -0.0288,-0.0476 0.13441,-0.082 0.27332,-0.1561 0.41646,-0.2196 0.0495,-0.045 0.10372,-0.0847 0.16192,-0.11906 0.1024,-0.0794 0.22834,-0.12436 0.35798,-0.12436 0.0418,0.003 0.0831,0.0106 0.1233,0.0212 0.0481,-0.0106 0.0966,-0.0159 0.14499,-0.0212 a 1.997075,1.997075 0 0 1 -0.55906,-0.508 1.2131146,1.2131146 0 0 1 -0.036,-0.0926 2.4116771,2.4116771 0 0 1 -0.38868,-0.28046 2.0203583,2.0203583 0 0 1 -0.13943,-0.127 2.0883562,2.0883562 0 0 1 -0.49213,0.76994 c -0.1225,0.127 -0.27754,0.21696 -0.4482,0.26193 a 0.96572917,0.96572917 0 0 1 -0.52044,-0.003 c -0.11403,-0.0317 -0.22277,-0.0794 -0.32331,-0.14287 l -0.11827,-0.0847 a 1.3258271,1.3258271 0 0 1 -0.008,-0.50536 1.381125,1.381125 0 0 1 0.19579,-0.50006 1.3784792,1.3784792 0 0 1 0.37359,-0.38365 1.9909896,1.9909896 0 0 1 0.54002,-0.28045 c 0.0889,-0.0265 0.17912,-0.0503 0.27014,-0.0661 a 0.8016875,0.8016875 0 0 1 -0.29184,-0.0794 c -0.0532,-0.10054 -0.0847,-0.20902 -0.0929,-0.32014 -0.0145,-0.11906 -0.003,-0.24077 0.0336,-0.35454 0.0368,-0.11642 0.0979,-0.22225 0.17913,-0.30957 a 1.2451292,1.2451292 0 0 1 0.685,-0.36247 c 0.1225,-0.0185 0.24659,-0.0185 0.36962,-0.005 0.0177,0.13758 0.0201,0.27781 0.007,0.41804 a 1.285875,1.285875 0 0 1 -0.24077,0.73289 c -0.0693,0.0979 -0.16298,0.17463 -0.27119,0.2249 l -0.0622,0.0238 0.26908,-0.005 0.13626,-0.003 a 4.0507708,4.0507708 0 0 1 -0.068,0.49477 c 0.13889,-0.0556 0.28044,-0.10583 0.42411,-0.15081 l 0.18759,-0.0529 0.006,-0.008 0.0196,0.003 0.11615,-0.0344 0.19447,-0.003 0.22384,-0.003 c 0.24315,-0.0556 0.49504,-0.0529 0.73686,0.003 a 1.0305521,1.0305521 0 0 1 -0.009,-0.15081 c 0.0505,-0.11113 0.11774,-0.21432 0.19924,-0.30428 0.063,-0.0847 0.1471,-0.15081 0.24394,-0.19314 0.0966,-0.0397 0.20267,-0.0529 0.30692,-0.0397 0.26961,0.0794 0.51355,0.23019 0.70776,0.43392 0.19764,0.1905 0.35639,0.37306 0.35639,0.37306 -0.059,0.0476 -0.11932,0.09 -0.18097,0.13229 0.11112,0.0767 0.21881,0.15875 0.32305,0.24606 a 2.6439812,2.6439812 0 0 1 1.01653,1.43934 z m -2.43628,1.57956 h 5.3e-4 l 10e-4,0.0661 a 0.14710833,0.14710833 0 0 1 -0.002,-0.0661 z m -4.30451,4.42913 c -0.0259,0.11112 -0.0175,0.22754 0.0249,0.33602 0.0773,0.13494 0.18177,0.25664 0.30718,0.35189 0.12542,0.0926 0.26908,0.1614 0.42201,0.19844 0.16061,0.0556 0.32809,0.09 0.49769,0.10054 l -0.008,-0.47625 c 0.0402,-0.23018 0.0362,-0.46302 -0.0114,-0.69056 -0.0421,-0.082 -0.10319,-0.15346 -0.17886,-0.20637 a 0.44820417,0.44820417 0 0 0 -0.10769,-0.0582 c 0.1233,-0.0397 0.24315,-0.0926 0.35745,-0.15611 l 0.39582,-0.1905 0.16378,-0.09 a 2.4241125,2.4241125 0 0 0 -0.031,-0.0476 h 7.9e-4 l 0.37756,-0.11377 c -0.0381,-0.082 -0.0849,-0.15875 -0.13996,-0.23019 a 1.5187083,1.5187083 0 0 0 -0.50321,-0.43126 0.91545833,0.91545833 0 0 0 -0.62415,-0.0952 1.7224375,1.7224375 0 0 0 -0.41116,-0.14817 0.73712917,0.73712917 0 0 0 -0.39899,0.0582 c -0.10081,0.0476 -0.18944,0.11642 -0.25956,0.20109 a 1.2483042,1.2483042 0 0 0 -0.34078,-0.0688 0.86862708,0.86862708 0 0 0 -0.77311,0.31486 c -0.14817,0.20373 -0.254,0.43127 -0.31406,0.67204 -0.0571,0.003 -0.1143,0.008 -0.17093,0.0159 l -0.14578,0.003 a 1.6263937,1.6263937 0 0 0 -0.0696,0.50535 c -0.0148,0.35455 0.10583,0.70115 0.33708,0.96838 a 2.1552958,2.1552958 0 0 0 0.95435,0.635 c 0.127,0.045 0.25797,0.0794 0.39106,0.10054 l 0.15557,-0.003 c 0.0172,-0.2196 0.0138,-0.44185 -0.0109,-0.66146 a 2.0843875,2.0843875 0 0 0 -0.28654,-1.00012 c 0.0426,-0.0556 0.0831,-0.11377 0.12118,-0.17198 0.0503,-0.0873 0.0921,-0.17727 0.12541,-0.27252 a 0.76014792,0.76014792 0 0 0 0.41434,0.28839 c -0.0315,0.0238 -0.0616,0.0476 -0.0907,0.0741 -0.0849,0.0767 -0.1442,0.17727 -0.17013,0.2884 z m 4.33044,5.31812 a 0.56515,0.56515 0 0 1 0.0688,-0.54504 c 0.0553,-0.0926 0.12277,-0.17992 0.20002,-0.25664 a 1.0662708,1.0662708 0 0 1 0.33073,-0.005 0.58076042,0.58076042 0 0 1 0.51118,0.32279 c 0.10186,0.27781 0.10689,0.58208 0.0145,0.86518 a 1.7613312,1.7613312 0 0 1 -0.16113,0.38894 c 0.0481,-0.0212 0.0971,-0.0397 0.14684,-0.0582 0.14023,-0.0238 0.28443,-0.0132 0.41937,0.0318 0.13493,0.045 0.25638,0.12436 0.35348,0.22754 0.11139,0.11378 0.21114,0.24078 0.29818,0.37307 0.0275,0.16139 0.0304,0.32543 0.008,0.48683 -0.0365,0.15081 -0.11377,0.2884 -0.22357,0.39952 -0.1098,0.10848 -0.24765,0.18786 -0.39846,0.22225 a 1.9404542,1.9404542 0 0 1 -1.14194,-0.20373 c -0.21141,-0.0926 -0.41752,-0.19579 -0.61807,-0.30956 0.0955,-0.18785 0.21008,-0.36513 0.34158,-0.53181 a 2.1550312,2.1550312 0 0 1 0.74162,-0.60325 l -0.34687,-0.24871 a 1.7967854,1.7967854 0 0 1 -0.54424,-0.55563 z m 0.24077,-1.46579 c 0.10901,0.0344 0.22437,0.0476 0.3384,0.037 0.25453,-0.0291 0.48657,-0.15875 0.64611,-0.35983 0.0915,-0.0953 0.16563,-0.20373 0.21828,-0.32544 a 2.0359688,2.0359688 0 0 0 -0.37465,-0.30427 1.1324167,1.1324167 0 0 0 -0.80115,-0.1905 c -0.10769,0.0265 -0.20717,0.0794 -0.28919,0.15346 -0.082,0.0741 -0.1442,0.16669 -0.18045,0.27252 -0.0394,0.10054 -0.064,0.20373 -0.0728,0.31221 0.0611,0.09 0.13467,0.16933 0.21802,0.23812 0.087,0.0767 0.18812,0.13229 0.29739,0.16669 z m -1.67825,0.80433 a 1.2726458,1.2726458 0 0 1 0.37623,-0.53445 c 0.0955,-0.082 0.20268,-0.15082 0.31777,-0.20109 0.10583,0.0662 0.19923,0.15082 0.27675,0.24871 a 0.81650417,0.81650417 0 0 1 0.14791,0.70644 1.5822083,1.5822083 0 0 1 -0.55298,0.70114 c -0.13468,0.0979 -0.27623,0.18786 -0.4236,0.26723 a 2.2992292,2.2992292 0 0 1 -0.11271,-0.33602 1.7023292,1.7023292 0 0 1 -0.0738,-0.59002 c -0.11589,0.0952 -0.24765,0.16934 -0.38947,0.21696 -0.16034,0.0661 -0.33443,0.09 -0.50615,0.0688 -0.17198,-0.0185 -0.33655,-0.0794 -0.47837,-0.17727 a 1.7700625,1.7700625 0 0 1 -0.61647,-0.78846 c -0.0323,-0.0609 -0.0564,-0.12435 -0.0775,-0.17727 h -2.7e-4 a 1.1469687,1.1469687 0 0 0 -0.0336,-0.082 l -0.002,-0.10848 c 0.0373,-0.13494 0.0907,-0.26723 0.15901,-0.39158 0.0632,-0.13229 0.16828,-0.24077 0.29898,-0.30692 a 0.6731,0.6731 0 0 1 0.4244,-0.0635 1.4941021,1.4941021 0 0 1 0.91625,0.68527 c 0.14234,0.21961 0.24818,0.46038 0.31353,0.71438 0.014,0.0529 0.0259,0.10318 0.0357,0.14816 z m 0.88714,6.352651 c -0.081,0.04233 -0.14948,0.105833 -0.19923,0.185208 -0.0931,0.214313 -0.12964,0.449792 -0.10557,0.679979 0.009,0.148167 0.027,0.293688 0.0561,0.436563 0.14579,-0.0344 0.2884,-0.08202 0.42572,-0.142875 0.23971,-0.08731 0.44714,-0.248709 0.59558,-0.455084 0.0495,-0.08467 0.0749,-0.17727 0.0733,-0.275166 a 0.50852917,0.50852917 0 0 0 -0.0823,-0.269875 1.2877271,1.2877271 0 0 0 -0.19844,-0.230188 1.2760854,1.2760854 0 0 0 -0.30136,0.0053 c -0.0921,0 -0.18283,0.02117 -0.26379,0.06615 z m 1.16788,-0.111125 a 0.72284167,0.72284167 0 0 1 -0.12648,-0.590026 c 0.0212,-0.0979 0.0556,-0.19579 0.1024,-0.2831 0.0921,-0.0423 0.19023,-0.0662 0.29051,-0.0741 0.10134,-0.0159 0.20505,-0.005 0.30136,0.0318 0.096,0.0344 0.18124,0.0953 0.24712,0.17463 0.15478,0.20637 0.22807,0.465663 0.20664,0.724955 -0.003,0.134937 -0.0233,0.269875 -0.0616,0.399521 -0.11906,0.01852 -0.24024,0.01852 -0.35983,0.0053 A 0.968375,0.968375 0 0 1 64.3588,44.899994 Z m -0.89668,-1.259416 a 1.0599208,1.0599208 0 0 0 -0.70035,0.0132 c -0.23918,0.082 -0.45429,0.22225 -0.62574,0.40746 -0.0468,0.0556 -0.0865,0.11112 -0.12091,0.1561 -0.0217,0.0318 -0.0415,0.0582 -0.0601,0.082 l -0.0664,0.09789 c 0.14261,0.06879 0.28998,0.127 0.44079,0.177271 0.26935,0.0926 0.5596,0.108479 0.83741,0.04498 a 0.84031667,0.84031667 0 0 0 0.51779,-0.465663 c 0.0439,-0.10848 0.0746,-0.21961 0.0918,-0.33338 -0.096,-0.0741 -0.20188,-0.13229 -0.31433,-0.17992 z m 7.43083,2.764895 a 0.97181458,0.97181458 0 0 1 -0.73713,0.732896 c -0.1958,0.03704 -0.39635,0.03969 -0.5932,0.0079 A 2.1550312,2.1550312 0 0 1 69.0993,46.794367 c -0.12886,-0.105833 -0.22781,-0.246062 -0.28655,-0.404812 a 0.96334792,0.96334792 0 0 1 -0.0495,-0.492125 2.7191229,2.7191229 0 0 1 0.75089,-1.082146 c 0.20003,-0.201083 0.41143,-0.388937 0.63289,-0.563559 0.17118,0.227538 0.32173,0.473601 0.44979,0.730247 a 2.289175,2.289175 0 0 1 0.29607,1.423458 z m -2.22859,1.415521 a 1.0503958,1.0503958 0 0 0 -0.29448,-0.439209 2.4309917,2.4309917 0 0 0 -1.23481,-0.534458 c -0.21908,-0.04233 -0.44053,-0.07144 -0.66331,-0.08731 -0.0169,0.156104 -0.0143,0.312208 0.008,0.468312 a 2.5781,2.5781 0 0 0 0.47307,0.963083 1.673225,1.673225 0 0 0 0.98346,0.627063 c 0.12965,0.0079 0.25982,0.0079 0.3892,-0.0079 l 0.15558,-0.0026 c 0.0325,-0.03704 0.0611,-0.07673 0.0857,-0.116417 0.0632,-0.108479 0.11059,-0.22225 0.14023,-0.343958 0.031,-0.177271 0.0164,-0.357188 -0.0426,-0.526521 z m 2.78262,2.055812 c -0.22172,0.116417 -0.4699,0.169334 -0.7194,0.15875 a 1.4104937,1.4104937 0 0 1 -0.7022,-0.22225 2.3172208,2.3172208 0 0 1 -0.53261,-0.428625 c 0.0646,-0.235479 0.1487,-0.463021 0.25135,-0.685271 a 2.4809979,2.4809979 0 0 1 0.95489,-1.103312 3.4951458,3.4951458 0 0 1 1.64756,-0.386292 c 0.118,-0.0026 0.23574,-0.0026 0.35348,0.0053 -0.0161,-0.09525 -0.0122,-0.193146 0.0116,-0.28575 A 1.8026062,1.8026062 0 0 1 73.322,46.180542 c 0.15214,-0.127 0.31274,-0.243417 0.48075,-0.346604 0.10081,0.171979 0.18838,0.351896 0.26194,0.53975 a 1.7039167,1.7039167 0 0 1 0.12356,1.008062 0.688975,0.688975 0 0 1 -0.55668,0.465667 c -0.13441,0.0291 -0.27305,0.03175 -0.40852,0.0079 -0.0466,-0.02646 -0.0913,-0.05556 -0.13388,-0.08731 a 5.5827083,5.5827083 0 0 1 -0.25691,0.568854 c -0.063,0.140229 -0.1352,0.277813 -0.2159,0.407459 l -0.001,0.0053 c -0.0209,0.127 -0.0648,0.251354 -0.13018,0.362479 -0.0582,0.02117 -0.11774,0.03969 -0.17859,0.05027 a 3.3774062,3.3774062 0 0 1 -0.85963,0.714375 z m -0.812,-13.737168 c 0.0418,-0.17198 0.0357,-0.35189 -0.0175,-0.51858 a 2.1603229,2.1603229 0 0 0 -0.94033,-0.96838 c -0.14447,-0.0741 -0.28866,-0.13493 -0.40561,-0.18521 -0.0418,-0.0185 -0.0804,-0.0344 -0.11403,-0.0476 l -0.2249,-0.0741 -0.0646,0.2249 c -0.01,0.0397 -0.0236,0.082 -0.0381,0.12965 -0.0381,0.11906 -0.0818,0.25929 -0.0794,0.40481 l -0.003,0.0106 -0.0661,-0.0476 a 0.85804375,0.85804375 0 0 0 -0.38232,-0.17727 0.6604,0.6604 0 0 0 -0.33602,0.0344 c -0.1069,0.0423 -0.20109,0.10848 -0.27305,0.19844 -0.0855,0.0953 -0.16193,0.19579 -0.2286,0.30427 -0.0201,0.13758 -0.0177,0.27516 0.007,0.4101 0.0272,0.12435 0.0905,0.23813 0.18176,0.32808 0.0913,0.09 0.20691,0.15346 0.33259,0.17727 a 1.1086042,1.1086042 0 0 0 0.53472,-0.0185 c 0.0495,-0.0132 0.0982,-0.0318 0.14605,-0.0503 0.003,0.0212 0.006,0.0397 0.01,0.0582 0.0661,0.14023 0.1651,0.26194 0.28866,0.35719 0.12356,0.0952 0.26776,0.15875 0.42069,0.18521 0.17938,0.037 0.36247,0.0556 0.54583,0.0503 a 1.6983604,1.6983604 0 0 0 0.45191,-0.33073 c 0.12462,-0.12435 0.21272,-0.2831 0.25426,-0.45508 z m -1.53062,1.53723 c 0.17648,0.0291 0.34237,0.10319 0.48234,0.21431 0.1397,0.11377 0.24871,0.25929 0.31617,0.42334 0.0611,0.16139 0.0905,0.33337 0.0863,0.50535 -0.11086,0.13229 -0.24394,0.24606 -0.39343,0.33602 -0.16193,0.0873 -0.34052,0.14288 -0.5244,0.15875 a 1.355725,1.355725 0 0 1 -0.54425,-0.0635 1.9994562,1.9994562 0 0 1 -0.9353,-0.6641 2.15265,2.15265 0 0 1 -0.28946,-0.44186 c 0.17648,-0.11377 0.36407,-0.20902 0.55959,-0.2831 a 2.1828125,2.1828125 0 0 1 1.24249,-0.18521 z m 3.23983,0.75406 a 1.4472708,1.4472708 0 0 0 0.4818,-0.47625 3.0255104,3.0255104 0 0 0 0.32121,-1.75418 4.5251687,4.5251687 0 0 0 -0.19209,-1.03717 c -0.26247,0.10583 -0.51462,0.23812 -0.75248,0.39158 a 3.3316333,3.3316333 0 0 0 -1.12977,1.11654 2.0404667,2.0404667 0 0 0 -0.19209,1.32557 c 0.0312,0.22225 0.0905,0.44185 0.17595,0.64823 0.21352,0.0265 0.42969,0.0238 0.64215,-0.0106 a 1.4652625,1.4652625 0 0 0 0.64532,-0.20373 z m -8.41561,-8.39523 c -0.17039,0.0132 -0.33417,0.0741 -0.47439,0.17198 a 2.1965708,2.1965708 0 0 0 -0.6948,0.94457 c -0.0622,0.17991 -0.11113,0.36777 -0.14632,0.55562 0.15002,0.0423 0.30348,0.0741 0.45879,0.09 0.37121,0.0556 0.75089,0.0106 1.09723,-0.13494 0.15875,-0.0714 0.29951,-0.17727 0.41169,-0.31221 0.11245,-0.13229 0.19341,-0.28839 0.23733,-0.45773 0.0251,-0.16404 0.0225,-0.33073 -0.008,-0.49477 a 1.2125854,1.2125854 0 0 0 -0.38417,-0.27516 0.94720833,0.94720833 0 0 0 -0.49716,-0.0873 z m -11.02968,-3.24908 c -0.11192,-0.0847 -0.24342,-0.14023 -0.38233,-0.1614 a 2.6154062,2.6154062 0 0 0 -1.05648,0.26194 l -0.20082,0.0714 -0.0124,-0.0291 a 1.6920104,1.6920104 0 0 0 -0.5969,-0.78846 0.873125,0.873125 0 0 0 -0.38655,-0.12965 c -0.13759,-0.0106 -0.27543,0.0106 -0.4027,0.0661 -0.12356,0.045 -0.23786,0.11112 -0.33708,0.19844 0.0217,0.13758 0.0632,0.27252 0.1233,0.39687 a 1.4628812,1.4628812 0 0 0 0.54531,0.62177 c 0.24606,0.11906 0.51805,0.17463 0.79083,0.16404 h 10e-4 c 0.0651,0.10319 0.14129,0.19844 0.22755,0.28575 a 1.9341042,1.9341042 0 0 0 1.13003,0.67204 0.82020833,0.82020833 0 0 0 0.46143,-0.0873 c 0.14209,-0.0714 0.26009,-0.18521 0.33946,-0.32279 0.0884,-0.14023 0.15161,-0.29104 0.18707,-0.45244 -0.0344,-0.1561 -0.0926,-0.30427 -0.17278,-0.44185 a 0.82682292,0.82682292 0 0 0 -0.25801,-0.32544 z m 0.9607,1.62454 c 0.0667,-0.14816 0.16616,-0.27781 0.29078,-0.381 a 1.0543646,1.0543646 0 0 1 0.42915,-0.21431 0.98292708,0.98292708 0 0 1 0.44741,-0.008 c 0.0151,0.0159 0.0296,0.0291 0.0437,0.045 0.0278,-0.005 0.0556,-0.005 0.0836,-0.008 0.15187,-0.003 0.3011,0.0397 0.42995,0.11906 0.14076,0.0741 0.26749,0.16933 0.37439,0.28575 0.0532,0.15081 0.0852,0.30692 0.0955,0.46567 a 0.77972708,0.77972708 0 0 1 -0.26062,0.72496 2.2222354,2.2222354 0 0 1 -0.91467,0.26458 c -0.0958,0.0794 -0.20081,0.14553 -0.31326,0.20109 -0.17516,0.0873 -0.36036,0.15346 -0.55139,0.19314 a 2.0962937,2.0962937 0 0 1 -0.20347,-0.52916 1.6150167,1.6150167 0 0 1 0.0489,-1.15888 z m -0.35216,5.78115 c 0.10742,0.0503 0.19976,0.12964 0.26776,0.22754 l 0.004,0.005 0.005,0.005 0.008,0.0132 c 0.007,-0.0185 0.0135,-0.0344 0.0212,-0.0529 0.10689,-0.10054 0.21987,-0.19579 0.3384,-0.2831 a 1.9214042,1.9214042 0 0 1 0.0143,-0.65088 c -0.0405,0.0318 -0.0815,0.0635 -0.1233,0.0953 -0.11879,0.0794 -0.25823,0.12435 -0.40163,0.12435 a 0.73077917,0.73077917 0 0 1 -0.40561,-0.11112 c -0.10292,-0.0635 -0.18283,-0.15875 -0.22834,-0.26988 0.0601,-0.127 0.15214,-0.23547 0.26723,-0.31485 a 2.0050125,2.0050125 0 0 1 0.90911,-0.32544 c 0.26406,-0.037 0.52361,-0.10054 0.7755,-0.18785 0.0622,-0.0159 0.12117,-0.045 0.17383,-0.082 0,0 -0.14367,0.14816 -0.33417,0.38629 -0.0275,0.0397 -0.0556,0.0767 -0.0844,0.11642 0.0328,0.0212 0.0651,0.045 0.0971,0.0662 a 2.0727458,2.0727458 0 0 1 0.6731,0.6985 c 0.14975,0.29368 0.1823,0.63235 0.0918,0.9472 0.007,0.0106 0.0145,0.0212 0.0217,0.0344 0.12594,0.17992 0.23654,0.37042 0.33046,0.56886 -0.20108,0.0847 -0.40798,0.1561 -0.61912,0.21431 a 1.8766896,1.8766896 0 0 1 -1.07904,0.0661 c -0.0794,-0.0265 -0.15267,-0.0688 -0.21617,-0.12435 a 0.58843333,0.58843333 0 0 1 -0.14816,-0.14817 c -0.0688,0.0953 -0.14923,0.17992 -0.23945,0.25136 -0.077,0.0688 -0.16801,0.11641 -0.26591,0.14552 0.0516,0.2831 0.0683,0.5715 0.0492,0.85989 -0.007,0.16934 -0.0238,0.33867 -0.05,0.508 l 0.002,0.13494 8e-4,0.0582 c 0,0 -0.14685,-0.0556 -0.35296,-0.16933 a 4.6616937,4.6616937 0 0 1 -0.77682,-0.48154 3.2623125,3.2623125 0 0 1 -0.75247,-0.7964 1.8404417,1.8404417 0 0 1 -0.39449,-0.89694 0.89429167,0.89429167 0 0 1 0.12144,-0.56091 c 0.0281,-0.0476 0.0601,-0.09 0.0958,-0.1323 l -0.0921,0.0318 c -0.65987,0.10584 -0.98478,-0.71437 -0.98478,-0.71437 0,0 -0.0145,-0.87312 0.694,-0.98425 a 1.9703521,1.9703521 0 0 1 1.08453,0.26458 c 0.20214,0.0979 0.39608,0.21167 0.5797,0.34132 a 4.5349583,4.5349583 0 0 1 -0.449,0.5027 c -0.072,0.082 -0.15054,0.15875 -0.23442,0.22755 0.0841,-0.0238 0.17013,-0.0423 0.25691,-0.0529 l 0.39,0.39422 0.0154,-0.003 a 2.003425,2.003425 0 0 1 0.94456,0.0529 z m 0.9189,1.5875 a 0.91016667,0.91016667 0 0 0 -0.34396,0.23019 1.3567833,1.3567833 0 0 0 -0.34555,0.87047 c -0.0161,0.15875 -0.0135,0.3175 0.008,0.47625 0.18124,0.0212 0.36434,0.0185 0.54478,-0.008 a 1.3798021,1.3798021 0 0 0 0.88847,-0.41275 c 0.0942,-0.10054 0.16113,-0.22489 0.19474,-0.35718 0.0336,-0.13229 0.0325,-0.27252 -0.003,-0.40482 -0.0259,-0.12964 -0.0741,-0.254 -0.14209,-0.36777 a 1.51765,1.51765 0 0 0 -0.39052,-0.082 0.90434583,0.90434583 0 0 0 -0.41037,0.0556 z m -6.35635,-5.47952 a 0.6842125,0.6842125 0 0 0 -0.0709,-0.29369 4.2846625,4.2846625 0 0 0 -0.61198,-0.53446 c -0.1442,-0.11112 -0.27967,-0.23283 -0.40508,-0.36248 -0.0389,0.0423 -0.0741,0.0873 -0.10477,0.13759 -0.0786,0.11906 -0.13865,0.25135 -0.17833,0.39158 a 1.3840354,1.3840354 0 0 0 0.0876,1.18269 c 0.0767,0.11906 0.18732,0.20902 0.31697,0.25929 0.12964,0.0529 0.27199,0.0635 0.40798,0.0318 0.12753,-0.0291 0.24871,-0.0794 0.35746,-0.15346 0.0593,-0.11377 0.10609,-0.23548 0.13996,-0.35983 0.0418,-0.0953 0.0627,-0.1958 0.0611,-0.29898 z m -0.3048,1.45785 c 0.11483,-0.0556 0.2405,-0.0847 0.3683,-0.0873 0.0431,0 0.086,0.003 0.12832,0.008 0.0757,-0.0529 0.15584,-0.0979 0.23945,-0.13494 l 0.1733,-0.10054 0.16431,-0.082 0.18018,-0.082 a 1.7814396,1.7814396 0 0 1 -0.15425,-0.11113 1.0429875,1.0429875 0 0 1 -0.28523,-0.33602 1.0292292,1.0292292 0 0 1 -0.11641,-0.42598 1.4814021,1.4814021 0 0 1 0.45164,-0.92075 c 0.0934,-0.10054 0.19262,-0.19844 0.29686,-0.2884 l 0.12489,-0.10847 0.13044,0.24077 a 2.3807208,2.3807208 0 0 1 0.38497,0.9181 1.3390562,1.3390562 0 0 1 -0.49213,1.07421 c 0.0751,0.10319 0.14023,0.21431 0.19394,0.33073 0.13944,0.33337 0.15584,0.70379 0.0466,1.04775 -0.0519,0.15875 -0.13652,0.30691 -0.24844,0.43127 -0.11192,0.12171 -0.24845,0.22225 -0.40111,0.29104 -0.15267,0.0794 -0.31089,0.14552 -0.47361,0.20108 l -0.27358,-0.0635 a 1.4046729,1.4046729 0 0 1 -0.48101,-0.26458 0.58208333,0.58208333 0 0 1 -0.16933,-0.23019 0.63764583,0.63764583 0 0 1 -0.0236,-0.12171 0.76252917,0.76252917 0 0 1 -0.10531,-0.0318 1.5504583,1.5504583 0 0 1 -0.30347,-0.11112 l -0.12753,-0.0556 a 1.7383125,1.7383125 0 0 1 0.14869,-0.43127 1.2522729,1.2522729 0 0 1 0.6231,-0.55563 z m 3.51366,-5.82083 c -0.10874,0.0132 -0.21934,-0.005 -0.31935,-0.0476 a 0.60827708,0.60827708 0 0 1 -0.24924,-0.20637 1.1707812,1.1707812 0 0 1 -0.20928,-0.29898 c -0.004,-0.11906 0.0138,-0.23813 0.0526,-0.34925 0.0302,-0.0979 0.0844,-0.18786 0.15822,-0.25665 0.0738,-0.0714 0.16431,-0.12435 0.26326,-0.14816 a 1.4459479,1.4459479 0 0 1 0.86916,0.18785 c 0.15901,0.0741 0.31035,0.1614 0.4519,0.26458 0,0 -0.53234,0.75936 -1.01732,0.85461 z m 6.73815,-0.96044 c 0.0722,0.0635 0.15954,0.11113 0.254,0.13494 0.12594,0.0212 0.25532,0.0159 0.37915,-0.0159 0.13149,-0.0264 0.26087,-0.0609 0.38735,-0.10583 0.25188,-0.0714 0.4646,-0.15346 0.4646,-0.15346 a 2.5598437,2.5598437 0 0 0 -0.25029,-0.43127 1.6470312,1.6470312 0 0 0 -0.3265,-0.32544 c -0.12038,-0.09 -0.25691,-0.15875 -0.40216,-0.19843 a 0.56806042,0.56806042 0 0 0 -0.32465,0.0318 c -0.10292,0.0397 -0.19156,0.11112 -0.25532,0.20108 -0.0701,0.0926 -0.12436,0.19579 -0.1606,0.30427 0.0119,0.10848 0.0365,0.21696 0.0735,0.32015 0.0333,0.09 0.0886,0.17197 0.16086,0.23812 z m -15.49189,5.27579 c -0.44026,0.4445 -1.13823,0.0185 -1.13823,0.0185 0,0 -0.47811,-0.67204 -0.0188,-1.1377 a 1.8158354,1.8158354 0 0 1 0.96625,-0.4154 c 0.21326,-0.0212 0.4281,-0.0265 0.64188,-0.0106 0,0 0.005,0.2831 -0.0675,0.62441 a 1.9584458,1.9584458 0 0 1 -0.38364,0.92075 z m -2.02882,0.30427 c 0.0503,-0.16668 0.0474,-0.3466 -0.009,-0.51329 a 1.8404417,1.8404417 0 0 0 -0.45823,-0.59531 1.8409708,1.8409708 0 0 0 -0.65696,-0.35983 l -0.19129,0.19843 a 2.3754292,2.3754292 0 0 0 -0.31062,0.63765 1.36525,1.36525 0 0 0 0.0124,0.75671 c 0.0257,0.10318 0.0788,0.19843 0.15372,0.27252 0.0749,0.0767 0.16881,0.13229 0.27173,0.15875 l 0.27384,0.0714 c 0.0905,0.0238 0.17886,0.0556 0.26432,0.0926 0.11774,0.0582 0.23231,0.12171 0.34343,0.1905 0.15716,0.0847 0.21405,-0.005 0.21405,-0.005 a 1.127125,1.127125 0 0 1 -0.002,-0.11642 1.0683875,1.0683875 0 0 1 -0.006,-0.33866 c 0.01,-0.0476 0.0249,-0.0979 0.041,-0.15082 0.0291,-0.0952 0.0603,-0.19843 0.0585,-0.29897 z m 1.89574,1.66159 c -0.25691,-0.0582 -0.50879,-0.13494 -0.75301,-0.23284 -0.15345,-0.0609 -0.30109,-0.13758 -0.44158,-0.22489 -0.0278,-0.0238 -0.0513,-0.0529 -0.0696,-0.0873 a 0.39105417,0.39105417 0 0 1 -0.005,-0.30956 c 0.0362,-0.0582 0.0815,-0.11377 0.13361,-0.15875 0.0564,-0.045 0.11774,-0.0873 0.1831,-0.11906 a 1.2154958,1.2154958 0 0 1 0.5424,-0.14552 2.968625,2.968625 0 0 1 1.69624,0.78052 c -0.15848,0.14817 -0.32861,0.2831 -0.50905,0.40481 -0.0807,0.0582 -0.16431,0.11113 -0.2503,0.1614 -0.0381,0 -0.0852,0.0265 -0.12885,0.0503 -0.0458,0.0265 -0.0878,0.0503 -0.11298,0.0397 a 1.1784542,1.1784542 0 0 0 -0.28469,-0.15875 z m 5.28823,-6.78657 c -0.0185,0.14288 -0.068,0.27782 -0.145,0.39952 -0.077,0.11907 -0.17991,0.22225 -0.30083,0.29898 -0.11509,0.0714 -0.23812,0.12965 -0.36697,0.16934 -0.12674,-0.0423 -0.24607,-0.10584 -0.35349,-0.18786 a 0.8016875,0.8016875 0 0 1 -0.26617,-0.30956 c -0.0601,-0.127 -0.0865,-0.26458 -0.0765,-0.40481 a 1.4427729,1.4427729 0 0 1 0.50059,-0.91017 2.2426083,2.2426083 0 0 1 0.4617,-0.33073 c 0.12594,0.10319 0.23336,0.22754 0.3175,0.36513 0.18256,0.26723 0.26379,0.59002 0.22913,0.91016 z m -0.84588,1.8124 a 1.4679083,1.4679083 0 0 0 0.63394,0.69056 c 0.31486,0.15081 0.66755,0.20902 1.01468,0.16669 0.17965,-0.008 0.35825,-0.0318 0.5342,-0.0662 a 3.6724167,3.6724167 0 0 0 -0.24316,-0.57943 1.9314583,1.9314583 0 0 0 -0.73422,-0.86255 1.0668,1.0668 0 0 0 -0.45667,-0.12964 c -0.16007,-0.0106 -0.32014,0.0159 -0.46857,0.0767 -0.15373,0.0556 -0.29713,0.13758 -0.42413,0.24077 0.0236,0.16139 0.072,0.3175 0.14393,0.46302 z m 8.12933,-2.63525 c 0.0929,-0.09 0.1643,-0.20108 0.20902,-0.32279 0.0839,-0.29104 0.0683,-0.60061 -0.0437,-0.88371 a 1.6912167,1.6912167 0 0 0 -0.20135,-0.40481 2.1087292,2.1087292 0 0 0 -0.44423,0.20373 1.2954,1.2954 0 0 0 -0.60167,0.67998 0.80248125,0.80248125 0 0 0 -0.0362,0.40481 c 0.0227,0.13494 0.0796,0.26194 0.16563,0.37041 0.0722,0.0873 0.15901,0.1614 0.25664,0.21961 0.12568,0 0.25056,-0.0212 0.36883,-0.0661 0.1225,-0.0397 0.23442,-0.11112 0.32703,-0.20108 z m 3.26707,5.70442 a 1.4380104,1.4380104 0 0 1 -0.0974,-0.66146 c 0.0198,-0.2249 0.0926,-0.44186 0.21193,-0.635 0.11192,-0.17992 0.24659,-0.34661 0.40058,-0.49213 l 0.18574,0.0556 c 0.15187,0.0503 0.29924,0.11377 0.44106,0.18785 a 2.0312062,2.0312062 0 0 1 0.93054,0.95515 c 0.19341,0.48947 0.25585,1.02129 0.18124,1.54252 a 4.7106417,4.7106417 0 0 1 -0.16166,0.8202 l -0.25479,-0.11112 c -0.20982,-0.0979 -0.41328,-0.20902 -0.60881,-0.33073 a 3.7756042,3.7756042 0 0 1 -0.66913,-0.53181 1.4525625,1.4525625 0 0 1 -0.15346,0.81756 c -0.0709,0.12965 -0.17118,0.24342 -0.29289,0.33073 -0.12171,0.0847 -0.26167,0.14287 -0.40905,0.16669 -0.14155,0.0265 -0.28601,0.0265 -0.42809,0.008 -0.10081,-0.0979 -0.18468,-0.21166 -0.24898,-0.33866 a 0.8747125,0.8747125 0 0 1 -0.11324,-0.4154 c -0.002,-0.14552 0.0317,-0.29104 0.0995,-0.41804 a 1.4483292,1.4483292 0 0 1 0.80645,-0.65617 c 0.091,-0.0344 0.18389,-0.0608 0.27808,-0.0847 -0.036,-0.0688 -0.0688,-0.13759 -0.0976,-0.20902 z m 10.98312,3.3946 c -0.0217,0.14288 0.001,0.2884 0.0653,0.41804 0.22834,0.30956 0.50562,0.58209 0.82074,0.80169 a 10.422202,10.422202 0 0 1 0.51488,0.5371 l 0.0937,-0.21695 c 0.13652,-0.17728 0.24156,-0.37836 0.31221,-0.59003 0.12303,-0.0238 0.24024,-0.0714 0.34342,-0.14552 0.14632,-0.10318 0.25718,-0.2487 0.31803,-0.41804 a 0.83925833,0.83925833 0 0 0 -0.28337,-0.43391 c -0.10001,-0.0794 -0.21669,-0.13759 -0.34051,-0.16405 a 2.3436792,2.3436792 0 0 0 -0.081,-0.24606 c -0.09,-0.18256 -0.23548,-0.33337 -0.41593,-0.42862 a 1.0567458,1.0567458 0 0 0 -0.46858,-0.09 c -0.17436,0.0159 -0.34448,0.0609 -0.50376,0.13493 a 2.0941771,2.0941771 0 0 0 -0.26511,0.44186 c -0.0601,0.12435 -0.0974,0.26194 -0.11007,0.39952 z m 0.67892,-1.88648 a 1.4710833,1.4710833 0 0 1 -1.06283,-0.13758 2.4579792,2.4579792 0 0 1 -0.31459,-0.20109 l -0.11853,-0.0952 a 2.0187708,2.0187708 0 0 1 -0.009,-0.51329 0.968375,0.968375 0 0 1 0.15795,-0.48683 c 0.095,-0.14552 0.22728,-0.26194 0.38312,-0.33867 a 1.7851437,1.7851437 0 0 1 1.39197,0.045 c 0.18786,0.0741 0.36857,0.16404 0.53975,0.27252 l 0.20664,0.14288 a 1.9304,1.9304 0 0 1 -0.21378,0.59531 c -0.0317,0.0582 -0.0669,0.11113 -0.10583,0.16404 0.28178,0.11906 0.77284,0.37042 0.92789,0.70644 0.23177,0.48419 -0.32597,0.88106 -0.32597,0.88106 0,0 -0.65881,0.16669 -0.89058,-0.30691 a 2.3897167,2.3897167 0 0 1 -0.0214,-0.97632 c -0.16272,0.11907 -0.34846,0.20373 -0.54531,0.24871 z m -2.43787,0.84667 a 2.1679958,2.1679958 0 0 0 -0.30983,0.64294 1.4557375,1.4557375 0 0 0 -0.74427,0.3466 0.97049167,0.97049167 0 0 0 -0.29924,0.72496 c 0.007,0.127 0.0386,0.25135 0.0937,0.36777 0.10689,0.0661 0.22727,0.10583 0.35216,0.11906 a 0.76596875,0.76596875 0 0 0 0.66172,-0.21696 c 0.006,0.0185 0.0111,0.0344 0.0167,0.0503 0.0185,0.0847 0.046,0.16404 0.0818,0.24342 a 0.24209375,0.24209375 0 0 0 0.002,0.0873 c 0.22013,-0.13758 0.43206,-0.2884 0.63473,-0.44979 0.18495,-0.14288 0.3519,-0.30956 0.49795,-0.49213 a 1.4261042,1.4261042 0 0 0 0.3011,-0.61912 c 0.022,-0.17992 -0.003,-0.36513 -0.072,-0.53446 a 1.0662708,1.0662708 0 0 0 -0.3236,-0.43127 1.5337896,1.5337896 0 0 0 -0.49107,-0.2831 2.2952604,2.2952604 0 0 0 -0.40137,0.4445 z m -0.25083,7.77081 a 1.3864167,1.3864167 0 0 0 -0.48154,0.88371 1.3742458,1.3742458 0 0 0 0.3093,1.05569 c 0.12647,0.1561 0.28046,0.28839 0.45403,0.38893 a 2.9157083,2.9157083 0 0 0 0.60457,-0.50535 1.6398875,1.6398875 0 0 0 0.37333,-0.53975 c 0.0868,-0.20373 0.13202,-0.42333 0.13255,-0.64558 a 0.96493542,0.96493542 0 0 0 -0.5379,-0.75671 1.4274271,1.4274271 0 0 0 -0.45005,-0.14817 c -0.14632,0.0688 -0.28231,0.1614 -0.40429,0.26723 z m -1.22449,-2.24367 a 1.939925,1.939925 0 0 1 0.82894,0.70644 c 0.10531,0.15346 0.18997,0.32279 0.25162,0.50006 -0.11509,0.13759 -0.25532,0.25136 -0.41301,0.33867 -0.15584,0.09 -0.33258,0.14023 -0.51329,0.14288 a 1.0707687,1.0707687 0 0 1 -0.51779,-0.127 2.2733,2.2733 0 0 1 -0.78582,-1.03717 c -0.10186,-0.22225 -0.18706,-0.44979 -0.25453,-0.68527 l 0.15558,-0.003 c 0.11642,-0.0132 0.23363,-0.0132 0.35031,-0.005 0.13811,0 0.27569,0.0159 0.40957,0.0503 0.16695,0.0212 0.331,0.0609 0.48842,0.11906 z m -7.31414,8.368775 c -0.0378,0.145521 -0.0286,0.301625 0.0262,0.441854 a 1.1826875,1.1826875 0 0 0 0.39846,0.558271 c 0.1659,0.129646 0.35613,0.224896 0.55933,0.283104 0.086,0.02381 0.1741,0.03704 0.26326,0.04233 l 0.20426,-0.0026 0.16431,-0.07937 -0.003,-0.177271 -0.003,-0.182563 -0.003,-0.214312 a 2.5807458,2.5807458 0 0 0 -0.0135,-0.806979 c -0.0714,-0.20373 -0.30666,-0.306917 -0.53155,-0.381 a 2.3725187,2.3725187 0 0 0 -0.42968,-0.07937 c -0.14473,0.04763 -0.27888,0.121708 -0.39529,0.219604 a 0.73025,0.73025 0 0 0 -0.23627,0.378354 z m 1.41182,-1.076854 a 0.73104375,0.73104375 0 0 1 -0.34634,-0.22225 0.71040625,0.71040625 0 0 1 -0.16933,-0.373063 0.82576458,0.82576458 0 0 1 -0.007,-0.388937 c 0.11641,-0.07408 0.24976,-0.116421 0.38735,-0.121711 a 1.5160625,1.5160625 0 0 1 0.84031,0.219607 c 0.0741,0.03175 0.14632,0.07144 0.2159,0.111125 0.0601,0.04233 0.11615,0.0926 0.16775,0.142875 0.0902,0.07937 0.17013,0.169333 0.23812,0.269875 0.0397,0.07673 0.073,0.127 0.10002,0.169333 l 0.0138,0.02117 0.006,0.01058 10e-4,0.07938 -0.49425,0.103187 a 2.1904854,2.1904854 0 0 1 -0.95408,-0.02117 z m -2.41512,-1.238251 c -0.18203,0.0608 -0.34449,0.169334 -0.47069,0.312209 a 2.6101146,2.6101146 0 0 0 -0.51806,1.613958 c -0.003,0.373063 0.0423,0.74348 0.13494,1.105959 0.21643,-0.08467 0.42333,-0.193146 0.61754,-0.322792 0.37571,-0.246062 0.70088,-0.560917 0.95753,-0.928687 A 2.1627042,2.1627042 0 0 0 58.7353,44.94493 c 0.0114,-0.185208 0.008,-0.370417 -0.009,-0.552979 a 1.6049625,1.6049625 0 0 0 -0.499,-0.177276 1.0519833,1.0519833 0 0 0 -0.56489,0.0344 z m 11.06646,8.355542 c -0.64188,0.01058 -0.83978,-0.772583 -0.83978,-0.772583 0,0 0.11271,-0.828146 0.75459,-0.85725 0.35401,0.01588 0.69506,0.140229 0.97869,0.351896 0.14764,0.09525 0.2757,0.1905 0.37412,0.267229 l 0.13812,0.113771 -0.12409,0.137583 -0.0288,0.02646 c -0.0826,0.07673 -0.18786,0.174625 -0.31645,0.269875 -0.26405,0.238125 -0.5879,0.396875 -0.93636,0.463019 z m -1.77218,-1.045104 a 1.0398125,1.0398125 0 0 0 0.42387,-0.468312 1.8343562,1.8343562 0 0 0 -0.18997,-1.473729 c -0.25056,0.05556 -0.48631,0.164041 -0.69162,0.320145 a 1.8034,1.8034 0 0 0 -0.50007,0.574146 1.0493375,1.0493375 0 0 0 0.34052,1.180042 1.0265833,1.0265833 0 0 0 0.61727,-0.132292 z m -0.15134,2.418292 a 1.5155333,1.5155333 0 0 1 -0.38285,-0.664104 1.5263812,1.5263812 0 0 1 -0.0106,-0.767292 1.55575,1.55575 0 0 1 0.76967,-0.08202 c 0.2593,0.03704 0.50456,0.142875 0.71306,0.301625 a 3.0294792,3.0294792 0 0 1 0.7194,1.735667 c -0.64347,0.02381 -1.27741,-0.15875 -1.80869,-0.523875 z m 7.33531,-4.212167 c 0.16801,-0.0026 0.33338,-0.04233 0.48445,-0.116416 a 2.2314958,2.2314958 0 0 0 0.87075,-0.899584 c 0.11932,-0.206375 0.21987,-0.420687 0.30056,-0.645583 -0.20478,-0.05027 -0.4138,-0.08202 -0.62441,-0.0979 a 2.3738417,2.3738417 0 0 0 -1.16443,0.185208 1.3623396,1.3623396 0 0 0 -0.63977,0.740834 1.6443854,1.6443854 0 0 0 -0.12832,0.478896 c 0.12462,0.103187 0.26353,0.1905 0.41302,0.254 0.15345,0.06879 0.32014,0.103187 0.48815,0.100541 z m 0.26644,-10.358433 c 0.14552,0.55033 -0.53076,0.8546 -0.53076,0.8546 0,0 -0.72945,0.0106 -0.86466,-0.51065 a 1.6277167,1.6277167 0 0 1 0.1405,-0.91545 c 0.0677,-0.17198 0.14631,-0.33867 0.23495,-0.50007 0.16378,0.0926 0.31882,0.20109 0.46275,0.32279 0.25691,0.18786 0.45112,0.4498 0.55722,0.74878 z m -0.65273,1.73566 a 0.8128,0.8128 0 0 0 -0.47149,-0.27781 1.4425083,1.4425083 0 0 0 -0.91387,0.0529 c -0.13547,0.0635 -0.26458,0.14023 -0.38523,0.23019 0.0643,0.12435 0.14129,0.23812 0.22939,0.3466 a 1.2866687,1.2866687 0 0 0 0.67866,0.43656 c 0.12488,0.0318 0.25532,0.0423 0.38391,0.0238 a 0.93927083,0.93927083 0 0 0 0.36354,-0.12435 c 0.11033,-0.0344 0.21219,-0.0926 0.29898,-0.16933 a 0.809625,0.809625 0 0 0 -0.18389,-0.51859 z m 2.1373,-0.21431 c -0.0791,0.13758 -0.18864,0.25665 -0.32041,0.3466 -0.13149,0.09 -0.28204,0.14817 -0.43973,0.17198 -0.14791,0.0238 -0.29898,0.0265 -0.44741,0.005 a 1.7364604,1.7364604 0 0 1 -0.1532,-0.43391 1.23825,1.23825 0 0 1 0.13097,-0.90488 2.6603854,2.6603854 0 0 1 1.38589,-0.9181 c 0.006,0.0582 0.007,0.11641 0.003,0.17462 0.01,0.14288 0.0119,0.28575 0.007,0.42863 a 2.1378333,2.1378333 0 0 1 -0.16616,1.12977 z m -2.96677,-7.35277 a 1.2284604,1.2284604 0 0 0 0.38523,-0.48948 c 0.12065,-0.33073 0.14526,-0.68792 0.0704,-1.03188 -0.0415,-0.1852 -0.10001,-0.36512 -0.17436,-0.53975 a 2.4905229,2.4905229 0 0 0 -1.10066,1.09538 1.1308292,1.1308292 0 0 0 0.0138,0.84667 c 0.0611,0.127 0.13811,0.24606 0.22992,0.35454 0.20902,-0.0265 0.40746,-0.10848 0.57573,-0.23548 z m -16.06391,-5.27315 a 0.85195833,0.85195833 0 0 0 -0.0571,0.44979 1.9571229,1.9571229 0 0 0 0.45455,1.01336 c 0.10901,0.14552 0.23178,0.28046 0.36672,0.40217 l 0.0765,-0.09 c 0.0685,-0.0714 0.12938,-0.15082 0.18097,-0.23548 0.0778,-0.12171 0.1442,-0.24871 0.19791,-0.38365 0.0587,-0.16669 0.0952,-0.33866 0.10822,-0.51594 a 1.2281958,1.2281958 0 0 0 -0.29686,-0.88106 1.1673417,1.1673417 0 0 0 -0.36434,-0.26458 0.288925,0.288925 0 0 0 -0.11668,0.003 c -0.0958,0.037 -0.18653,0.0873 -0.26987,0.14817 -0.12383,0.0926 -0.22066,0.21431 -0.27993,0.35454 z m 2.21059,11.66019 a 0.80988958,0.80988958 0 0 1 0.55827,-0.37042 c 0.13997,-0.037 0.28258,-0.0662 0.42678,-0.0847 0.1307,0.0529 0.24818,0.13494 0.34448,0.23813 a 0.73633542,0.73633542 0 0 1 0.10187,0.86254 1.3805958,1.3805958 0 0 1 -0.4199,0.49477 c -0.16642,0.11113 -0.34872,0.19579 -0.5408,0.25136 -0.20373,0.0661 -0.41619,0.10318 -0.63077,0.10583 l 0.0386,-0.61119 -0.008,-0.49742 c 0.0225,-0.13493 0.0664,-0.26722 0.12965,-0.38893 z m -1.04986,-1.12183 c 0.25717,-0.18521 0.53128,-0.34661 0.81915,-0.4789 a 2.2039792,2.2039792 0 0 1 0.48392,-0.14552 c 0.0601,0.0714 0.11033,0.14817 0.14975,0.23283 a 0.714375,0.714375 0 0 1 0.008,0.45509 c -0.0217,0.0979 -0.0643,0.18785 -0.12541,0.26723 -0.0609,0.0767 -0.13838,0.14287 -0.22701,0.1852 a 1.7192625,1.7192625 0 0 1 -1.12845,0.0212 6.2653333,6.2653333 0 0 1 -0.61621,-0.19579 l 0.10609,-0.0582 c 0.17119,-0.0847 0.33549,-0.18256 0.49133,-0.29104 z m -4.59079,5.998102 c 0,0 -0.41857,-0.605892 -0.93107,-0.404813 a 1.793875,1.793875 0 0 0 -0.6895,0.664104 c -0.11086,0.156104 -0.2122,0.320146 -0.30322,0.492125 0.17675,0.07937 0.3601,0.145521 0.54796,0.193146 0.313,0.113771 0.65378,0.127 0.97366,0.0344 0.56039,-0.243417 0.40217,-0.978958 0.40217,-0.978958 z m 0.67971,0.492125 a 0.87338958,0.87338958 0 0 1 0.35825,-0.685271 c 0.0968,-0.08202 0.2077,-0.148167 0.32782,-0.1905 0.1233,0.03704 0.23945,0.09525 0.34316,0.169333 0.10848,0.07673 0.19712,0.177271 0.25824,0.293688 0.0614,0.119062 0.0934,0.248708 0.0937,0.381 a 1.3758333,1.3758333 0 0 1 -0.37492,0.862541 c -0.11403,0.129646 -0.24288,0.246063 -0.38364,0.346604 -0.12303,-0.0979 -0.23284,-0.20902 -0.3265,-0.33602 a 1.3213292,1.3213292 0 0 1 -0.29607,-0.841375 z m 0.16167,-1.973797 A 1.2411604,1.2411604 0 0 0 53.6,42.735655 a 1.9235208,1.9235208 0 0 0 -1.02288,-0.0794 c -0.18124,0.0291 -0.3593,0.0741 -0.53313,0.13494 0.086,0.18256 0.18653,0.35983 0.30083,0.52917 a 1.9513021,1.9513021 0 0 0 0.80036,0.73554 1.11125,1.11125 0 0 0 0.45377,0.0873 c 0.15583,-0.003 0.30956,-0.037 0.45085,-0.10319 a 1.5319375,1.5319375 0 0 0 0.37517,-0.2487 1.577975,1.577975 0 0 0 -0.15292,-0.43392 z m -5.96953,-3.83116 a 0.82920417,0.82920417 0 0 1 -0.21061,0.80169 c -0.10901,0.12435 -0.23495,0.23018 -0.37412,0.3175 -0.16352,0.0344 -0.33179,0.037 -0.4961,0.008 a 0.82047292,0.82047292 0 0 1 -0.41169,-0.18521 0.8175625,0.8175625 0 0 1 -0.2495,-0.37836 1.9428354,1.9428354 0 0 1 0.14473,-1.24618 c 0.063,-0.15875 0.13864,-0.31221 0.22595,-0.46038 l 0.11351,-0.18521 c 0,0 0.26617,0.20902 0.55245,0.45773 0.3003,0.23019 0.54186,0.52917 0.70538,0.87048 z m -0.79164,2.10608 a 1.3538729,1.3538729 0 0 0 -0.50006,-0.18785 1.6846021,1.6846021 0 0 0 -1.05569,0.29898 c -0.16245,0.10318 -0.31088,0.22754 -0.44159,0.36777 a 3.7890979,3.7890979 0 0 0 0.52811,0.74877 c 0.19579,0.24341 0.44133,0.44185 0.71993,0.58208 0.24924,0.127 0.53367,0.17198 0.80963,0.12171 0.20399,-0.0344 0.38894,-0.14023 0.52043,-0.29898 0.0833,-0.11377 0.14103,-0.24342 0.16881,-0.38365 0.007,-0.10583 0.005,-0.21431 -0.005,-0.32014 l -0.002,-0.13494 -0.35745,-0.42333 a 1.3472583,1.3472583 0 0 0 -0.38471,-0.37042 z m 2.41962,-0.65352 h -2.7e-4 c -0.16245,0.17727 -0.32623,0.35454 -0.48657,0.49477 -0.1479,0.12171 -0.30929,0.23019 -0.48127,0.3175 a 0.4079875,0.4079875 0 0 1 -0.1278,-0.0741 0.73289583,0.73289583 0 0 1 -0.21828,-0.26987 1.27,1.27 0 0 1 0.0304,-1.09009 2.3563792,2.3563792 0 0 1 0.95753,-0.93927 c 0.21802,-0.11906 0.44371,-0.22225 0.67601,-0.31221 0.0603,0.21696 0.10292,0.43657 0.12779,0.65882 l 0.005,0.31221 0.004,0.25135 10e-4,0.0688 c -0.0204,0.0688 -0.0558,0.13229 -0.10398,0.18521 l -0.0865,0.0609 -0.0571,0.0794 c -0.0794,0.082 -0.15954,0.16933 -0.24024,0.25664 z m -0.78978,-6.06425 a 7.4906187,7.4906187 0 0 0 0.59769,0.83608 c 0.0315,0.0397 0.0558,0.0767 0.0783,0.11113 0.0545,0.0847 0.0976,0.15081 0.20849,0.17727 0.17489,0.0635 0.3601,0.0979 0.54663,0.0979 0.23336,0.0159 0.46778,0.0132 0.70035,-0.0132 a 3.1554208,3.1554208 0 0 0 -0.95303,-1.73302 1.1702521,1.1702521 0 0 0 -0.46646,-0.20638 1.1837458,1.1837458 0 0 0 -0.50985,0.008 c -0.10583,0.0291 -0.20664,0.0741 -0.29951,0.1323 l -0.10557,0.09 c 0.0458,0.17462 0.11377,0.34395 0.20294,0.50006 z m 16.5137,1.45785 c 0.003,0.16934 0.0431,0.33338 0.11827,0.48419 a 2.1325417,2.1325417 0 0 0 0.96705,0.82021 c 0.22807,0.11377 0.46778,0.20638 0.71464,0.26988 0.0352,-0.20638 0.0481,-0.4154 0.0384,-0.62178 a 2.3793979,2.3793979 0 0 0 -0.28125,-1.12447 1.3795375,1.3795375 0 0 0 -0.74957,-0.60855 1.8663708,1.8663708 0 0 0 -0.47863,-0.11906 c -0.0945,0.127 -0.17065,0.26458 -0.22675,0.41275 a 1.1258021,1.1258021 0 0 0 -0.10212,0.48683 z"
       id="path716"
       inkscape:connector-curvature="0"
       style="clip-rule:evenodd;fill:#fcd873;fill-rule:evenodd;stroke-width:0.26458332" />
  </g>
</svg>
